<svg version="1.1"
    xmlns="http://www.w3.org/2000/svg"
    xmlns:xlink="http://www.w3.org/1999/xlink"
    width="360" height="473.4272207354931"
    viewBox="0 0 360 473.4272207354931">
  <g stroke="rgba(255,0,0,0.1)" stroke-width="1" fill="none">
    <polygon points="40,0 60,11.547005383792515 40,23.09401076758503 20,11.547005383792515" />
    <polygon points="80,0 100,11.547005383792515 80,23.09401076758503 60,11.547005383792515" />
    <polygon points="120,0 140,11.547005383792515 120,23.09401076758503 100,11.547005383792515" />
    <polygon points="160,0 180,11.547005383792515 160,23.09401076758503 140,11.547005383792515" />
    <polygon points="200,0 220,11.547005383792515 200,23.09401076758503 180,11.547005383792515" />
    <polygon points="240,0 260,11.547005383792515 240,23.09401076758503 220,11.547005383792515" />
    <polygon points="280,0 300,11.547005383792515 280,23.09401076758503 260,11.547005383792515" />
    <polygon points="320,0 340,11.547005383792515 320,23.09401076758503 300,11.547005383792515" />
    <polygon points="360,0 380,11.547005383792515 360,23.09401076758503 340,11.547005383792515" />
    <polygon points="20,11.547005383792515 40,23.09401076758503 20,34.64101615137754 0,23.09401076758503" />
    <polygon points="60,11.547005383792515 80,23.09401076758503 60,34.64101615137754 40,23.09401076758503" />
    <polygon points="100,11.547005383792515 120,23.09401076758503 100,34.64101615137754 80,23.09401076758503" />
    <polygon points="140,11.547005383792515 160,23.09401076758503 140,34.64101615137754 120,23.09401076758503" />
    <polygon points="180,11.547005383792515 200,23.09401076758503 180,34.64101615137754 160,23.09401076758503" />
    <polygon points="220,11.547005383792515 240,23.09401076758503 220,34.64101615137754 200,23.09401076758503" />
    <polygon points="260,11.547005383792515 280,23.09401076758503 260,34.64101615137754 240,23.09401076758503" />
    <polygon points="300,11.547005383792515 320,23.09401076758503 300,34.64101615137754 280,23.09401076758503" />
    <polygon points="340,11.547005383792515 360,23.09401076758503 340,34.64101615137754 320,23.09401076758503" />
    <polygon points="40,23.09401076758503 60,34.64101615137754 40,46.18802153517006 20,34.64101615137754" />
    <polygon points="80,23.09401076758503 100,34.64101615137754 80,46.18802153517006 60,34.64101615137754" />
    <polygon points="120,23.09401076758503 140,34.64101615137754 120,46.18802153517006 100,34.64101615137754" />
    <polygon points="160,23.09401076758503 180,34.64101615137754 160,46.18802153517006 140,34.64101615137754" />
    <polygon points="200,23.09401076758503 220,34.64101615137754 200,46.18802153517006 180,34.64101615137754" />
    <polygon points="240,23.09401076758503 260,34.64101615137754 240,46.18802153517006 220,34.64101615137754" />
    <polygon points="280,23.09401076758503 300,34.64101615137754 280,46.18802153517006 260,34.64101615137754" />
    <polygon points="320,23.09401076758503 340,34.64101615137754 320,46.18802153517006 300,34.64101615137754" />
    <polygon points="360,23.09401076758503 380,34.64101615137754 360,46.18802153517006 340,34.64101615137754" />
    <polygon points="20,34.64101615137754 40,46.18802153517006 20,57.735026918962575 0,46.18802153517006" />
    <polygon points="60,34.64101615137754 80,46.18802153517006 60,57.735026918962575 40,46.18802153517006" />
    <polygon points="100,34.64101615137754 120,46.18802153517006 100,57.735026918962575 80,46.18802153517006" />
    <polygon points="140,34.64101615137754 160,46.18802153517006 140,57.735026918962575 120,46.18802153517006" />
    <polygon points="180,34.64101615137754 200,46.18802153517006 180,57.735026918962575 160,46.18802153517006" />
    <polygon points="220,34.64101615137754 240,46.18802153517006 220,57.735026918962575 200,46.18802153517006" />
    <polygon points="260,34.64101615137754 280,46.18802153517006 260,57.735026918962575 240,46.18802153517006" />
    <polygon points="300,34.64101615137754 320,46.18802153517006 300,57.735026918962575 280,46.18802153517006" />
    <polygon points="340,34.64101615137754 360,46.18802153517006 340,57.735026918962575 320,46.18802153517006" />
    <polygon points="40,46.18802153517006 60,57.735026918962575 40,69.28203230275508 20,57.735026918962575" />
    <polygon points="80,46.18802153517006 100,57.735026918962575 80,69.28203230275508 60,57.735026918962575" />
    <polygon points="120,46.18802153517006 140,57.735026918962575 120,69.28203230275508 100,57.735026918962575" />
    <polygon points="160,46.18802153517006 180,57.735026918962575 160,69.28203230275508 140,57.735026918962575" />
    <polygon points="200,46.18802153517006 220,57.735026918962575 200,69.28203230275508 180,57.735026918962575" />
    <polygon points="240,46.18802153517006 260,57.735026918962575 240,69.28203230275508 220,57.735026918962575" />
    <polygon points="280,46.18802153517006 300,57.735026918962575 280,69.28203230275508 260,57.735026918962575" />
    <polygon points="320,46.18802153517006 340,57.735026918962575 320,69.28203230275508 300,57.735026918962575" />
    <polygon points="360,46.18802153517006 380,57.735026918962575 360,69.28203230275508 340,57.735026918962575" />
    <polygon points="20,57.735026918962575 40,69.28203230275508 20,80.82903768654761 0,69.28203230275508" />
    <polygon points="60,57.735026918962575 80,69.28203230275508 60,80.82903768654761 40,69.28203230275508" />
    <polygon points="100,57.735026918962575 120,69.28203230275508 100,80.82903768654761 80,69.28203230275508" />
    <polygon points="140,57.735026918962575 160,69.28203230275508 140,80.82903768654761 120,69.28203230275508" />
    <polygon points="180,57.735026918962575 200,69.28203230275508 180,80.82903768654761 160,69.28203230275508" />
    <polygon points="220,57.735026918962575 240,69.28203230275508 220,80.82903768654761 200,69.28203230275508" />
    <polygon points="260,57.735026918962575 280,69.28203230275508 260,80.82903768654761 240,69.28203230275508" />
    <polygon points="300,57.735026918962575 320,69.28203230275508 300,80.82903768654761 280,69.28203230275508" />
    <polygon points="340,57.735026918962575 360,69.28203230275508 340,80.82903768654761 320,69.28203230275508" />
    <polygon points="40,69.28203230275508 60,80.8290376865476 40,92.37604307034012 20,80.8290376865476" />
    <polygon points="80,69.28203230275508 100,80.8290376865476 80,92.37604307034012 60,80.8290376865476" />
    <polygon points="120,69.28203230275508 140,80.8290376865476 120,92.37604307034012 100,80.8290376865476" />
    <polygon points="160,69.28203230275508 180,80.8290376865476 160,92.37604307034012 140,80.8290376865476" />
    <polygon points="200,69.28203230275508 220,80.8290376865476 200,92.37604307034012 180,80.8290376865476" />
    <polygon points="240,69.28203230275508 260,80.8290376865476 240,92.37604307034012 220,80.8290376865476" />
    <polygon points="280,69.28203230275508 300,80.8290376865476 280,92.37604307034012 260,80.8290376865476" />
    <polygon points="320,69.28203230275508 340,80.8290376865476 320,92.37604307034012 300,80.8290376865476" />
    <polygon points="360,69.28203230275508 380,80.8290376865476 360,92.37604307034012 340,80.8290376865476" />
    <polygon points="20,80.82903768654761 40,92.37604307034012 20,103.92304845413264 0,92.37604307034012" />
    <polygon points="60,80.82903768654761 80,92.37604307034012 60,103.92304845413264 40,92.37604307034012" />
    <polygon points="100,80.82903768654761 120,92.37604307034012 100,103.92304845413264 80,92.37604307034012" />
    <polygon points="140,80.82903768654761 160,92.37604307034012 140,103.92304845413264 120,92.37604307034012" />
    <polygon points="180,80.82903768654761 200,92.37604307034012 180,103.92304845413264 160,92.37604307034012" />
    <polygon points="220,80.82903768654761 240,92.37604307034012 220,103.92304845413264 200,92.37604307034012" />
    <polygon points="260,80.82903768654761 280,92.37604307034012 260,103.92304845413264 240,92.37604307034012" />
    <polygon points="300,80.82903768654761 320,92.37604307034012 300,103.92304845413264 280,92.37604307034012" />
    <polygon points="340,80.82903768654761 360,92.37604307034012 340,103.92304845413264 320,92.37604307034012" />
    <polygon points="40,92.37604307034012 60,103.92304845413263 40,115.47005383792515 20,103.92304845413263" />
    <polygon points="80,92.37604307034012 100,103.92304845413263 80,115.47005383792515 60,103.92304845413263" />
    <polygon points="120,92.37604307034012 140,103.92304845413263 120,115.47005383792515 100,103.92304845413263" />
    <polygon points="160,92.37604307034012 180,103.92304845413263 160,115.47005383792515 140,103.92304845413263" />
    <polygon points="200,92.37604307034012 220,103.92304845413263 200,115.47005383792515 180,103.92304845413263" />
    <polygon points="240,92.37604307034012 260,103.92304845413263 240,115.47005383792515 220,103.92304845413263" />
    <polygon points="280,92.37604307034012 300,103.92304845413263 280,115.47005383792515 260,103.92304845413263" />
    <polygon points="320,92.37604307034012 340,103.92304845413263 320,115.47005383792515 300,103.92304845413263" />
    <polygon points="360,92.37604307034012 380,103.92304845413263 360,115.47005383792515 340,103.92304845413263" />
    <polygon points="20,103.92304845413263 40,115.47005383792514 20,127.01705922171766 0,115.47005383792514" />
    <polygon points="60,103.92304845413263 80,115.47005383792514 60,127.01705922171766 40,115.47005383792514" />
    <polygon points="100,103.92304845413263 120,115.47005383792514 100,127.01705922171766 80,115.47005383792514" />
    <polygon points="140,103.92304845413263 160,115.47005383792514 140,127.01705922171766 120,115.47005383792514" />
    <polygon points="180,103.92304845413263 200,115.47005383792514 180,127.01705922171766 160,115.47005383792514" />
    <polygon points="220,103.92304845413263 240,115.47005383792514 220,127.01705922171766 200,115.47005383792514" />
    <polygon points="260,103.92304845413263 280,115.47005383792514 260,127.01705922171766 240,115.47005383792514" />
    <polygon points="300,103.92304845413263 320,115.47005383792514 300,127.01705922171766 280,115.47005383792514" />
    <polygon points="340,103.92304845413263 360,115.47005383792514 340,127.01705922171766 320,115.47005383792514" />
    <polygon points="40,115.47005383792515 60,127.01705922171766 40,138.56406460551017 20,127.01705922171766" />
    <polygon points="80,115.47005383792515 100,127.01705922171766 80,138.56406460551017 60,127.01705922171766" />
    <polygon points="120,115.47005383792515 140,127.01705922171766 120,138.56406460551017 100,127.01705922171766" />
    <polygon points="160,115.47005383792515 180,127.01705922171766 160,138.56406460551017 140,127.01705922171766" />
    <polygon points="200,115.47005383792515 220,127.01705922171766 200,138.56406460551017 180,127.01705922171766" />
    <polygon points="240,115.47005383792515 260,127.01705922171766 240,138.56406460551017 220,127.01705922171766" />
    <polygon points="280,115.47005383792515 300,127.01705922171766 280,138.56406460551017 260,127.01705922171766" />
    <polygon points="320,115.47005383792515 340,127.01705922171766 320,138.56406460551017 300,127.01705922171766" />
    <polygon points="360,115.47005383792515 380,127.01705922171766 360,138.56406460551017 340,127.01705922171766" />
    <polygon points="20,127.01705922171766 40,138.56406460551017 20,150.11106998930268 0,138.56406460551017" />
    <polygon points="60,127.01705922171766 80,138.56406460551017 60,150.11106998930268 40,138.56406460551017" />
    <polygon points="100,127.01705922171766 120,138.56406460551017 100,150.11106998930268 80,138.56406460551017" />
    <polygon points="140,127.01705922171766 160,138.56406460551017 140,150.11106998930268 120,138.56406460551017" />
    <polygon points="180,127.01705922171766 200,138.56406460551017 180,150.11106998930268 160,138.56406460551017" />
    <polygon points="220,127.01705922171766 240,138.56406460551017 220,150.11106998930268 200,138.56406460551017" />
    <polygon points="260,127.01705922171766 280,138.56406460551017 260,150.11106998930268 240,138.56406460551017" />
    <polygon points="300,127.01705922171766 320,138.56406460551017 300,150.11106998930268 280,138.56406460551017" />
    <polygon points="340,127.01705922171766 360,138.56406460551017 340,150.11106998930268 320,138.56406460551017" />
    <polygon points="40,138.56406460551017 60,150.11106998930268 40,161.6580753730952 20,150.11106998930268" />
    <polygon points="80,138.56406460551017 100,150.11106998930268 80,161.6580753730952 60,150.11106998930268" />
    <polygon points="120,138.56406460551017 140,150.11106998930268 120,161.6580753730952 100,150.11106998930268" />
    <polygon points="160,138.56406460551017 180,150.11106998930268 160,161.6580753730952 140,150.11106998930268" />
    <polygon points="200,138.56406460551017 220,150.11106998930268 200,161.6580753730952 180,150.11106998930268" />
    <polygon points="240,138.56406460551017 260,150.11106998930268 240,161.6580753730952 220,150.11106998930268" />
    <polygon points="280,138.56406460551017 300,150.11106998930268 280,161.6580753730952 260,150.11106998930268" />
    <polygon points="320,138.56406460551017 340,150.11106998930268 320,161.6580753730952 300,150.11106998930268" />
    <polygon points="360,138.56406460551017 380,150.11106998930268 360,161.6580753730952 340,150.11106998930268" />
    <polygon points="20,150.11106998930268 40,161.6580753730952 20,173.2050807568877 0,161.6580753730952" />
    <polygon points="60,150.11106998930268 80,161.6580753730952 60,173.2050807568877 40,161.6580753730952" />
    <polygon points="100,150.11106998930268 120,161.6580753730952 100,173.2050807568877 80,161.6580753730952" />
    <polygon points="140,150.11106998930268 160,161.6580753730952 140,173.2050807568877 120,161.6580753730952" />
    <polygon points="180,150.11106998930268 200,161.6580753730952 180,173.2050807568877 160,161.6580753730952" />
    <polygon points="220,150.11106998930268 240,161.6580753730952 220,173.2050807568877 200,161.6580753730952" />
    <polygon points="260,150.11106998930268 280,161.6580753730952 260,173.2050807568877 240,161.6580753730952" />
    <polygon points="300,150.11106998930268 320,161.6580753730952 300,173.2050807568877 280,161.6580753730952" />
    <polygon points="340,150.11106998930268 360,161.6580753730952 340,173.2050807568877 320,161.6580753730952" />
    <polygon points="40,161.65807537309522 60,173.20508075688772 40,184.75208614068023 20,173.20508075688772" />
    <polygon points="80,161.65807537309522 100,173.20508075688772 80,184.75208614068023 60,173.20508075688772" />
    <polygon points="120,161.65807537309522 140,173.20508075688772 120,184.75208614068023 100,173.20508075688772" />
    <polygon points="160,161.65807537309522 180,173.20508075688772 160,184.75208614068023 140,173.20508075688772" />
    <polygon points="200,161.65807537309522 220,173.20508075688772 200,184.75208614068023 180,173.20508075688772" />
    <polygon points="240,161.65807537309522 260,173.20508075688772 240,184.75208614068023 220,173.20508075688772" />
    <polygon points="280,161.65807537309522 300,173.20508075688772 280,184.75208614068023 260,173.20508075688772" />
    <polygon points="320,161.65807537309522 340,173.20508075688772 320,184.75208614068023 300,173.20508075688772" />
    <polygon points="360,161.65807537309522 380,173.20508075688772 360,184.75208614068023 340,173.20508075688772" />
    <polygon points="20,173.20508075688772 40,184.75208614068023 20,196.29909152447274 0,184.75208614068023" />
    <polygon points="60,173.20508075688772 80,184.75208614068023 60,196.29909152447274 40,184.75208614068023" />
    <polygon points="100,173.20508075688772 120,184.75208614068023 100,196.29909152447274 80,184.75208614068023" />
    <polygon points="140,173.20508075688772 160,184.75208614068023 140,196.29909152447274 120,184.75208614068023" />
    <polygon points="180,173.20508075688772 200,184.75208614068023 180,196.29909152447274 160,184.75208614068023" />
    <polygon points="220,173.20508075688772 240,184.75208614068023 220,196.29909152447274 200,184.75208614068023" />
    <polygon points="260,173.20508075688772 280,184.75208614068023 260,196.29909152447274 240,184.75208614068023" />
    <polygon points="300,173.20508075688772 320,184.75208614068023 300,196.29909152447274 280,184.75208614068023" />
    <polygon points="340,173.20508075688772 360,184.75208614068023 340,196.29909152447274 320,184.75208614068023" />
    <polygon points="40,184.75208614068023 60,196.29909152447274 40,207.84609690826525 20,196.29909152447274" />
    <polygon points="80,184.75208614068023 100,196.29909152447274 80,207.84609690826525 60,196.29909152447274" />
    <polygon points="120,184.75208614068023 140,196.29909152447274 120,207.84609690826525 100,196.29909152447274" />
    <polygon points="160,184.75208614068023 180,196.29909152447274 160,207.84609690826525 140,196.29909152447274" />
    <polygon points="200,184.75208614068023 220,196.29909152447274 200,207.84609690826525 180,196.29909152447274" />
    <polygon points="240,184.75208614068023 260,196.29909152447274 240,207.84609690826525 220,196.29909152447274" />
    <polygon points="280,184.75208614068023 300,196.29909152447274 280,207.84609690826525 260,196.29909152447274" />
    <polygon points="320,184.75208614068023 340,196.29909152447274 320,207.84609690826525 300,196.29909152447274" />
    <polygon points="360,184.75208614068023 380,196.29909152447274 360,207.84609690826525 340,196.29909152447274" />
    <polygon points="20,196.29909152447274 40,207.84609690826525 20,219.39310229205776 0,207.84609690826525" />
    <polygon points="60,196.29909152447274 80,207.84609690826525 60,219.39310229205776 40,207.84609690826525" />
    <polygon points="100,196.29909152447274 120,207.84609690826525 100,219.39310229205776 80,207.84609690826525" />
    <polygon points="140,196.29909152447274 160,207.84609690826525 140,219.39310229205776 120,207.84609690826525" />
    <polygon points="180,196.29909152447274 200,207.84609690826525 180,219.39310229205776 160,207.84609690826525" />
    <polygon points="220,196.29909152447274 240,207.84609690826525 220,219.39310229205776 200,207.84609690826525" />
    <polygon points="260,196.29909152447274 280,207.84609690826525 260,219.39310229205776 240,207.84609690826525" />
    <polygon points="300,196.29909152447274 320,207.84609690826525 300,219.39310229205776 280,207.84609690826525" />
    <polygon points="340,196.29909152447274 360,207.84609690826525 340,219.39310229205776 320,207.84609690826525" />
    <polygon points="40,207.84609690826525 60,219.39310229205776 40,230.94010767585027 20,219.39310229205776" />
    <polygon points="80,207.84609690826525 100,219.39310229205776 80,230.94010767585027 60,219.39310229205776" />
    <polygon points="120,207.84609690826525 140,219.39310229205776 120,230.94010767585027 100,219.39310229205776" />
    <polygon points="160,207.84609690826525 180,219.39310229205776 160,230.94010767585027 140,219.39310229205776" />
    <polygon points="200,207.84609690826525 220,219.39310229205776 200,230.94010767585027 180,219.39310229205776" />
    <polygon points="240,207.84609690826525 260,219.39310229205776 240,230.94010767585027 220,219.39310229205776" />
    <polygon points="280,207.84609690826525 300,219.39310229205776 280,230.94010767585027 260,219.39310229205776" />
    <polygon points="320,207.84609690826525 340,219.39310229205776 320,230.94010767585027 300,219.39310229205776" />
    <polygon points="360,207.84609690826525 380,219.39310229205776 360,230.94010767585027 340,219.39310229205776" />
    <polygon points="20,219.3931022920578 40,230.9401076758503 20,242.4871130596428 0,230.9401076758503" />
    <polygon points="60,219.3931022920578 80,230.9401076758503 60,242.4871130596428 40,230.9401076758503" />
    <polygon points="100,219.3931022920578 120,230.9401076758503 100,242.4871130596428 80,230.9401076758503" />
    <polygon points="140,219.3931022920578 160,230.9401076758503 140,242.4871130596428 120,230.9401076758503" />
    <polygon points="180,219.3931022920578 200,230.9401076758503 180,242.4871130596428 160,230.9401076758503" />
    <polygon points="220,219.3931022920578 240,230.9401076758503 220,242.4871130596428 200,230.9401076758503" />
    <polygon points="260,219.3931022920578 280,230.9401076758503 260,242.4871130596428 240,230.9401076758503" />
    <polygon points="300,219.3931022920578 320,230.9401076758503 300,242.4871130596428 280,230.9401076758503" />
    <polygon points="340,219.3931022920578 360,230.9401076758503 340,242.4871130596428 320,230.9401076758503" />
    <polygon points="40,230.9401076758503 60,242.4871130596428 40,254.03411844343532 20,242.4871130596428" />
    <polygon points="80,230.9401076758503 100,242.4871130596428 80,254.03411844343532 60,242.4871130596428" />
    <polygon points="120,230.9401076758503 140,242.4871130596428 120,254.03411844343532 100,242.4871130596428" />
    <polygon points="160,230.9401076758503 180,242.4871130596428 160,254.03411844343532 140,242.4871130596428" />
    <polygon points="200,230.9401076758503 220,242.4871130596428 200,254.03411844343532 180,242.4871130596428" />
    <polygon points="240,230.9401076758503 260,242.4871130596428 240,254.03411844343532 220,242.4871130596428" />
    <polygon points="280,230.9401076758503 300,242.4871130596428 280,254.03411844343532 260,242.4871130596428" />
    <polygon points="320,230.9401076758503 340,242.4871130596428 320,254.03411844343532 300,242.4871130596428" />
    <polygon points="360,230.9401076758503 380,242.4871130596428 360,254.03411844343532 340,242.4871130596428" />
    <polygon points="20,242.4871130596428 40,254.03411844343532 20,265.5811238272278 0,254.03411844343532" />
    <polygon points="60,242.4871130596428 80,254.03411844343532 60,265.5811238272278 40,254.03411844343532" />
    <polygon points="100,242.4871130596428 120,254.03411844343532 100,265.5811238272278 80,254.03411844343532" />
    <polygon points="140,242.4871130596428 160,254.03411844343532 140,265.5811238272278 120,254.03411844343532" />
    <polygon points="180,242.4871130596428 200,254.03411844343532 180,265.5811238272278 160,254.03411844343532" />
    <polygon points="220,242.4871130596428 240,254.03411844343532 220,265.5811238272278 200,254.03411844343532" />
    <polygon points="260,242.4871130596428 280,254.03411844343532 260,265.5811238272278 240,254.03411844343532" />
    <polygon points="300,242.4871130596428 320,254.03411844343532 300,265.5811238272278 280,254.03411844343532" />
    <polygon points="340,242.4871130596428 360,254.03411844343532 340,265.5811238272278 320,254.03411844343532" />
    <polygon points="40,254.03411844343532 60,265.5811238272278 40,277.12812921102034 20,265.5811238272278" />
    <polygon points="80,254.03411844343532 100,265.5811238272278 80,277.12812921102034 60,265.5811238272278" />
    <polygon points="120,254.03411844343532 140,265.5811238272278 120,277.12812921102034 100,265.5811238272278" />
    <polygon points="160,254.03411844343532 180,265.5811238272278 160,277.12812921102034 140,265.5811238272278" />
    <polygon points="200,254.03411844343532 220,265.5811238272278 200,277.12812921102034 180,265.5811238272278" />
    <polygon points="240,254.03411844343532 260,265.5811238272278 240,277.12812921102034 220,265.5811238272278" />
    <polygon points="280,254.03411844343532 300,265.5811238272278 280,277.12812921102034 260,265.5811238272278" />
    <polygon points="320,254.03411844343532 340,265.5811238272278 320,277.12812921102034 300,265.5811238272278" />
    <polygon points="360,254.03411844343532 380,265.5811238272278 360,277.12812921102034 340,265.5811238272278" />
    <polygon points="20,265.5811238272278 40,277.12812921102034 20,288.67513459481285 0,277.12812921102034" />
    <polygon points="60,265.5811238272278 80,277.12812921102034 60,288.67513459481285 40,277.12812921102034" />
    <polygon points="100,265.5811238272278 120,277.12812921102034 100,288.67513459481285 80,277.12812921102034" />
    <polygon points="140,265.5811238272278 160,277.12812921102034 140,288.67513459481285 120,277.12812921102034" />
    <polygon points="180,265.5811238272278 200,277.12812921102034 180,288.67513459481285 160,277.12812921102034" />
    <polygon points="220,265.5811238272278 240,277.12812921102034 220,288.67513459481285 200,277.12812921102034" />
    <polygon points="260,265.5811238272278 280,277.12812921102034 260,288.67513459481285 240,277.12812921102034" />
    <polygon points="300,265.5811238272278 320,277.12812921102034 300,288.67513459481285 280,277.12812921102034" />
    <polygon points="340,265.5811238272278 360,277.12812921102034 340,288.67513459481285 320,277.12812921102034" />
    <polygon points="40,277.12812921102034 60,288.67513459481285 40,300.22213997860536 20,288.67513459481285" />
    <polygon points="80,277.12812921102034 100,288.67513459481285 80,300.22213997860536 60,288.67513459481285" />
    <polygon points="120,277.12812921102034 140,288.67513459481285 120,300.22213997860536 100,288.67513459481285" />
    <polygon points="160,277.12812921102034 180,288.67513459481285 160,300.22213997860536 140,288.67513459481285" />
    <polygon points="200,277.12812921102034 220,288.67513459481285 200,300.22213997860536 180,288.67513459481285" />
    <polygon points="240,277.12812921102034 260,288.67513459481285 240,300.22213997860536 220,288.67513459481285" />
    <polygon points="280,277.12812921102034 300,288.67513459481285 280,300.22213997860536 260,288.67513459481285" />
    <polygon points="320,277.12812921102034 340,288.67513459481285 320,300.22213997860536 300,288.67513459481285" />
    <polygon points="360,277.12812921102034 380,288.67513459481285 360,300.22213997860536 340,288.67513459481285" />
    <polygon points="20,288.67513459481285 40,300.22213997860536 20,311.76914536239786 0,300.22213997860536" />
    <polygon points="60,288.67513459481285 80,300.22213997860536 60,311.76914536239786 40,300.22213997860536" />
    <polygon points="100,288.67513459481285 120,300.22213997860536 100,311.76914536239786 80,300.22213997860536" />
    <polygon points="140,288.67513459481285 160,300.22213997860536 140,311.76914536239786 120,300.22213997860536" />
    <polygon points="180,288.67513459481285 200,300.22213997860536 180,311.76914536239786 160,300.22213997860536" />
    <polygon points="220,288.67513459481285 240,300.22213997860536 220,311.76914536239786 200,300.22213997860536" />
    <polygon points="260,288.67513459481285 280,300.22213997860536 260,311.76914536239786 240,300.22213997860536" />
    <polygon points="300,288.67513459481285 320,300.22213997860536 300,311.76914536239786 280,300.22213997860536" />
    <polygon points="340,288.67513459481285 360,300.22213997860536 340,311.76914536239786 320,300.22213997860536" />
    <polygon points="40,300.22213997860536 60,311.76914536239786 40,323.3161507461904 20,311.76914536239786" />
    <polygon points="80,300.22213997860536 100,311.76914536239786 80,323.3161507461904 60,311.76914536239786" />
    <polygon points="120,300.22213997860536 140,311.76914536239786 120,323.3161507461904 100,311.76914536239786" />
    <polygon points="160,300.22213997860536 180,311.76914536239786 160,323.3161507461904 140,311.76914536239786" />
    <polygon points="200,300.22213997860536 220,311.76914536239786 200,323.3161507461904 180,311.76914536239786" />
    <polygon points="240,300.22213997860536 260,311.76914536239786 240,323.3161507461904 220,311.76914536239786" />
    <polygon points="280,300.22213997860536 300,311.76914536239786 280,323.3161507461904 260,311.76914536239786" />
    <polygon points="320,300.22213997860536 340,311.76914536239786 320,323.3161507461904 300,311.76914536239786" />
    <polygon points="360,300.22213997860536 380,311.76914536239786 360,323.3161507461904 340,311.76914536239786" />
    <polygon points="20,311.7691453623979 40,323.31615074619043 20,334.86315612998294 0,323.31615074619043" />
    <polygon points="60,311.7691453623979 80,323.31615074619043 60,334.86315612998294 40,323.31615074619043" />
    <polygon points="100,311.7691453623979 120,323.31615074619043 100,334.86315612998294 80,323.31615074619043" />
    <polygon points="140,311.7691453623979 160,323.31615074619043 140,334.86315612998294 120,323.31615074619043" />
    <polygon points="180,311.7691453623979 200,323.31615074619043 180,334.86315612998294 160,323.31615074619043" />
    <polygon points="220,311.7691453623979 240,323.31615074619043 220,334.86315612998294 200,323.31615074619043" />
    <polygon points="260,311.7691453623979 280,323.31615074619043 260,334.86315612998294 240,323.31615074619043" />
    <polygon points="300,311.7691453623979 320,323.31615074619043 300,334.86315612998294 280,323.31615074619043" />
    <polygon points="340,311.7691453623979 360,323.31615074619043 340,334.86315612998294 320,323.31615074619043" />
    <polygon points="40,323.31615074619043 60,334.86315612998294 40,346.41016151377545 20,334.86315612998294" />
    <polygon points="80,323.31615074619043 100,334.86315612998294 80,346.41016151377545 60,334.86315612998294" />
    <polygon points="120,323.31615074619043 140,334.86315612998294 120,346.41016151377545 100,334.86315612998294" />
    <polygon points="160,323.31615074619043 180,334.86315612998294 160,346.41016151377545 140,334.86315612998294" />
    <polygon points="200,323.31615074619043 220,334.86315612998294 200,346.41016151377545 180,334.86315612998294" />
    <polygon points="240,323.31615074619043 260,334.86315612998294 240,346.41016151377545 220,334.86315612998294" />
    <polygon points="280,323.31615074619043 300,334.86315612998294 280,346.41016151377545 260,334.86315612998294" />
    <polygon points="320,323.31615074619043 340,334.86315612998294 320,346.41016151377545 300,334.86315612998294" />
    <polygon points="360,323.31615074619043 380,334.86315612998294 360,346.41016151377545 340,334.86315612998294" />
    <polygon points="20,334.86315612998294 40,346.41016151377545 20,357.95716689756796 0,346.41016151377545" />
    <polygon points="60,334.86315612998294 80,346.41016151377545 60,357.95716689756796 40,346.41016151377545" />
    <polygon points="100,334.86315612998294 120,346.41016151377545 100,357.95716689756796 80,346.41016151377545" />
    <polygon points="140,334.86315612998294 160,346.41016151377545 140,357.95716689756796 120,346.41016151377545" />
    <polygon points="180,334.86315612998294 200,346.41016151377545 180,357.95716689756796 160,346.41016151377545" />
    <polygon points="220,334.86315612998294 240,346.41016151377545 220,357.95716689756796 200,346.41016151377545" />
    <polygon points="260,334.86315612998294 280,346.41016151377545 260,357.95716689756796 240,346.41016151377545" />
    <polygon points="300,334.86315612998294 320,346.41016151377545 300,357.95716689756796 280,346.41016151377545" />
    <polygon points="340,334.86315612998294 360,346.41016151377545 340,357.95716689756796 320,346.41016151377545" />
    <polygon points="40,346.41016151377545 60,357.95716689756796 40,369.50417228136047 20,357.95716689756796" />
    <polygon points="80,346.41016151377545 100,357.95716689756796 80,369.50417228136047 60,357.95716689756796" />
    <polygon points="120,346.41016151377545 140,357.95716689756796 120,369.50417228136047 100,357.95716689756796" />
    <polygon points="160,346.41016151377545 180,357.95716689756796 160,369.50417228136047 140,357.95716689756796" />
    <polygon points="200,346.41016151377545 220,357.95716689756796 200,369.50417228136047 180,357.95716689756796" />
    <polygon points="240,346.41016151377545 260,357.95716689756796 240,369.50417228136047 220,357.95716689756796" />
    <polygon points="280,346.41016151377545 300,357.95716689756796 280,369.50417228136047 260,357.95716689756796" />
    <polygon points="320,346.41016151377545 340,357.95716689756796 320,369.50417228136047 300,357.95716689756796" />
    <polygon points="360,346.41016151377545 380,357.95716689756796 360,369.50417228136047 340,357.95716689756796" />
    <polygon points="20,357.95716689756796 40,369.50417228136047 20,381.051177665153 0,369.50417228136047" />
    <polygon points="60,357.95716689756796 80,369.50417228136047 60,381.051177665153 40,369.50417228136047" />
    <polygon points="100,357.95716689756796 120,369.50417228136047 100,381.051177665153 80,369.50417228136047" />
    <polygon points="140,357.95716689756796 160,369.50417228136047 140,381.051177665153 120,369.50417228136047" />
    <polygon points="180,357.95716689756796 200,369.50417228136047 180,381.051177665153 160,369.50417228136047" />
    <polygon points="220,357.95716689756796 240,369.50417228136047 220,381.051177665153 200,369.50417228136047" />
    <polygon points="260,357.95716689756796 280,369.50417228136047 260,381.051177665153 240,369.50417228136047" />
    <polygon points="300,357.95716689756796 320,369.50417228136047 300,381.051177665153 280,369.50417228136047" />
    <polygon points="340,357.95716689756796 360,369.50417228136047 340,381.051177665153 320,369.50417228136047" />
    <polygon points="40,369.50417228136047 60,381.051177665153 40,392.5981830489455 20,381.051177665153" />
    <polygon points="80,369.50417228136047 100,381.051177665153 80,392.5981830489455 60,381.051177665153" />
    <polygon points="120,369.50417228136047 140,381.051177665153 120,392.5981830489455 100,381.051177665153" />
    <polygon points="160,369.50417228136047 180,381.051177665153 160,392.5981830489455 140,381.051177665153" />
    <polygon points="200,369.50417228136047 220,381.051177665153 200,392.5981830489455 180,381.051177665153" />
    <polygon points="240,369.50417228136047 260,381.051177665153 240,392.5981830489455 220,381.051177665153" />
    <polygon points="280,369.50417228136047 300,381.051177665153 280,392.5981830489455 260,381.051177665153" />
    <polygon points="320,369.50417228136047 340,381.051177665153 320,392.5981830489455 300,381.051177665153" />
    <polygon points="360,369.50417228136047 380,381.051177665153 360,392.5981830489455 340,381.051177665153" />
    <polygon points="20,381.051177665153 40,392.5981830489455 20,404.145188432738 0,392.5981830489455" />
    <polygon points="60,381.051177665153 80,392.5981830489455 60,404.145188432738 40,392.5981830489455" />
    <polygon points="100,381.051177665153 120,392.5981830489455 100,404.145188432738 80,392.5981830489455" />
    <polygon points="140,381.051177665153 160,392.5981830489455 140,404.145188432738 120,392.5981830489455" />
    <polygon points="180,381.051177665153 200,392.5981830489455 180,404.145188432738 160,392.5981830489455" />
    <polygon points="220,381.051177665153 240,392.5981830489455 220,404.145188432738 200,392.5981830489455" />
    <polygon points="260,381.051177665153 280,392.5981830489455 260,404.145188432738 240,392.5981830489455" />
    <polygon points="300,381.051177665153 320,392.5981830489455 300,404.145188432738 280,392.5981830489455" />
    <polygon points="340,381.051177665153 360,392.5981830489455 340,404.145188432738 320,392.5981830489455" />
    <polygon points="40,392.5981830489455 60,404.145188432738 40,415.6921938165305 20,404.145188432738" />
    <polygon points="80,392.5981830489455 100,404.145188432738 80,415.6921938165305 60,404.145188432738" />
    <polygon points="120,392.5981830489455 140,404.145188432738 120,415.6921938165305 100,404.145188432738" />
    <polygon points="160,392.5981830489455 180,404.145188432738 160,415.6921938165305 140,404.145188432738" />
    <polygon points="200,392.5981830489455 220,404.145188432738 200,415.6921938165305 180,404.145188432738" />
    <polygon points="240,392.5981830489455 260,404.145188432738 240,415.6921938165305 220,404.145188432738" />
    <polygon points="280,392.5981830489455 300,404.145188432738 280,415.6921938165305 260,404.145188432738" />
    <polygon points="320,392.5981830489455 340,404.145188432738 320,415.6921938165305 300,404.145188432738" />
    <polygon points="360,392.5981830489455 380,404.145188432738 360,415.6921938165305 340,404.145188432738" />
    <polygon points="20,404.145188432738 40,415.6921938165305 20,427.239199200323 0,415.6921938165305" />
    <polygon points="60,404.145188432738 80,415.6921938165305 60,427.239199200323 40,415.6921938165305" />
    <polygon points="100,404.145188432738 120,415.6921938165305 100,427.239199200323 80,415.6921938165305" />
    <polygon points="140,404.145188432738 160,415.6921938165305 140,427.239199200323 120,415.6921938165305" />
    <polygon points="180,404.145188432738 200,415.6921938165305 180,427.239199200323 160,415.6921938165305" />
    <polygon points="220,404.145188432738 240,415.6921938165305 220,427.239199200323 200,415.6921938165305" />
    <polygon points="260,404.145188432738 280,415.6921938165305 260,427.239199200323 240,415.6921938165305" />
    <polygon points="300,404.145188432738 320,415.6921938165305 300,427.239199200323 280,415.6921938165305" />
    <polygon points="340,404.145188432738 360,415.6921938165305 340,427.239199200323 320,415.6921938165305" />
    <polygon points="40,415.6921938165305 60,427.239199200323 40,438.7862045841155 20,427.239199200323" />
    <polygon points="80,415.6921938165305 100,427.239199200323 80,438.7862045841155 60,427.239199200323" />
    <polygon points="120,415.6921938165305 140,427.239199200323 120,438.7862045841155 100,427.239199200323" />
    <polygon points="160,415.6921938165305 180,427.239199200323 160,438.7862045841155 140,427.239199200323" />
    <polygon points="200,415.6921938165305 220,427.239199200323 200,438.7862045841155 180,427.239199200323" />
    <polygon points="240,415.6921938165305 260,427.239199200323 240,438.7862045841155 220,427.239199200323" />
    <polygon points="280,415.6921938165305 300,427.239199200323 280,438.7862045841155 260,427.239199200323" />
    <polygon points="320,415.6921938165305 340,427.239199200323 320,438.7862045841155 300,427.239199200323" />
    <polygon points="360,415.6921938165305 380,427.239199200323 360,438.7862045841155 340,427.239199200323" />
    <polygon points="20,427.239199200323 40,438.7862045841155 20,450.33320996790803 0,438.7862045841155" />
    <polygon points="60,427.239199200323 80,438.7862045841155 60,450.33320996790803 40,438.7862045841155" />
    <polygon points="100,427.239199200323 120,438.7862045841155 100,450.33320996790803 80,438.7862045841155" />
    <polygon points="140,427.239199200323 160,438.7862045841155 140,450.33320996790803 120,438.7862045841155" />
    <polygon points="180,427.239199200323 200,438.7862045841155 180,450.33320996790803 160,438.7862045841155" />
    <polygon points="220,427.239199200323 240,438.7862045841155 220,450.33320996790803 200,438.7862045841155" />
    <polygon points="260,427.239199200323 280,438.7862045841155 260,450.33320996790803 240,438.7862045841155" />
    <polygon points="300,427.239199200323 320,438.7862045841155 300,450.33320996790803 280,438.7862045841155" />
    <polygon points="340,427.239199200323 360,438.7862045841155 340,450.33320996790803 320,438.7862045841155" />
    <polygon points="40,438.7862045841156 60,450.3332099679081 40,461.8802153517006 20,450.3332099679081" />
    <polygon points="80,438.7862045841156 100,450.3332099679081 80,461.8802153517006 60,450.3332099679081" />
    <polygon points="120,438.7862045841156 140,450.3332099679081 120,461.8802153517006 100,450.3332099679081" />
    <polygon points="160,438.7862045841156 180,450.3332099679081 160,461.8802153517006 140,450.3332099679081" />
    <polygon points="200,438.7862045841156 220,450.3332099679081 200,461.8802153517006 180,450.3332099679081" />
    <polygon points="240,438.7862045841156 260,450.3332099679081 240,461.8802153517006 220,450.3332099679081" />
    <polygon points="280,438.7862045841156 300,450.3332099679081 280,461.8802153517006 260,450.3332099679081" />
    <polygon points="320,438.7862045841156 340,450.3332099679081 320,461.8802153517006 300,450.3332099679081" />
    <polygon points="360,438.7862045841156 380,450.3332099679081 360,461.8802153517006 340,450.3332099679081" />
    <polygon points="20,450.3332099679081 40,461.8802153517006 20,473.4272207354931 0,461.8802153517006" />
    <polygon points="60,450.3332099679081 80,461.8802153517006 60,473.4272207354931 40,461.8802153517006" />
    <polygon points="100,450.3332099679081 120,461.8802153517006 100,473.4272207354931 80,461.8802153517006" />
    <polygon points="140,450.3332099679081 160,461.8802153517006 140,473.4272207354931 120,461.8802153517006" />
    <polygon points="180,450.3332099679081 200,461.8802153517006 180,473.4272207354931 160,461.8802153517006" />
    <polygon points="220,450.3332099679081 240,461.8802153517006 220,473.4272207354931 200,461.8802153517006" />
    <polygon points="260,450.3332099679081 280,461.8802153517006 260,473.4272207354931 240,461.8802153517006" />
    <polygon points="300,450.3332099679081 320,461.8802153517006 300,473.4272207354931 280,461.8802153517006" />
    <polygon points="340,450.3332099679081 360,461.8802153517006 340,473.4272207354931 320,461.8802153517006" />
  </g>
  <g stroke="none" fill="rgb(255,0,0)" text-anchor="middle">
    <text font-family="Arial" x="40" y="11.547005383792515" font-size="8" transform="translate(0,3)">0,0</text>
    <text font-family="Arial" x="80" y="11.547005383792515" font-size="8" transform="translate(0,3)">1,0</text>
    <text font-family="Arial" x="120" y="11.547005383792515" font-size="8" transform="translate(0,3)">2,0</text>
    <text font-family="Arial" x="160" y="11.547005383792515" font-size="8" transform="translate(0,3)">3,0</text>
    <text font-family="Arial" x="200" y="11.547005383792515" font-size="8" transform="translate(0,3)">4,0</text>
    <text font-family="Arial" x="240" y="11.547005383792515" font-size="8" transform="translate(0,3)">5,0</text>
    <text font-family="Arial" x="280" y="11.547005383792515" font-size="8" transform="translate(0,3)">6,0</text>
    <text font-family="Arial" x="320" y="11.547005383792515" font-size="8" transform="translate(0,3)">7,0</text>
    <text font-family="Arial" x="360" y="11.547005383792515" font-size="8" transform="translate(0,3)">8,0</text>
    <text font-family="Arial" x="20" y="23.09401076758503" font-size="8" transform="translate(0,3)">0,1</text>
    <text font-family="Arial" x="60" y="23.09401076758503" font-size="8" transform="translate(0,3)">1,1</text>
    <text font-family="Arial" x="100" y="23.09401076758503" font-size="8" transform="translate(0,3)">2,1</text>
    <text font-family="Arial" x="140" y="23.09401076758503" font-size="8" transform="translate(0,3)">3,1</text>
    <text font-family="Arial" x="180" y="23.09401076758503" font-size="8" transform="translate(0,3)">4,1</text>
    <text font-family="Arial" x="220" y="23.09401076758503" font-size="8" transform="translate(0,3)">5,1</text>
    <text font-family="Arial" x="260" y="23.09401076758503" font-size="8" transform="translate(0,3)">6,1</text>
    <text font-family="Arial" x="300" y="23.09401076758503" font-size="8" transform="translate(0,3)">7,1</text>
    <text font-family="Arial" x="340" y="23.09401076758503" font-size="8" transform="translate(0,3)">8,1</text>
    <text font-family="Arial" x="40" y="34.64101615137754" font-size="8" transform="translate(0,3)">0,2</text>
    <text font-family="Arial" x="80" y="34.64101615137754" font-size="8" transform="translate(0,3)">1,2</text>
    <text font-family="Arial" x="120" y="34.64101615137754" font-size="8" transform="translate(0,3)">2,2</text>
    <text font-family="Arial" x="160" y="34.64101615137754" font-size="8" transform="translate(0,3)">3,2</text>
    <text font-family="Arial" x="200" y="34.64101615137754" font-size="8" transform="translate(0,3)">4,2</text>
    <text font-family="Arial" x="240" y="34.64101615137754" font-size="8" transform="translate(0,3)">5,2</text>
    <text font-family="Arial" x="280" y="34.64101615137754" font-size="8" transform="translate(0,3)">6,2</text>
    <text font-family="Arial" x="320" y="34.64101615137754" font-size="8" transform="translate(0,3)">7,2</text>
    <text font-family="Arial" x="360" y="34.64101615137754" font-size="8" transform="translate(0,3)">8,2</text>
    <text font-family="Arial" x="20" y="46.18802153517006" font-size="8" transform="translate(0,3)">0,3</text>
    <text font-family="Arial" x="60" y="46.18802153517006" font-size="8" transform="translate(0,3)">1,3</text>
    <text font-family="Arial" x="100" y="46.18802153517006" font-size="8" transform="translate(0,3)">2,3</text>
    <text font-family="Arial" x="140" y="46.18802153517006" font-size="8" transform="translate(0,3)">3,3</text>
    <text font-family="Arial" x="180" y="46.18802153517006" font-size="8" transform="translate(0,3)">4,3</text>
    <text font-family="Arial" x="220" y="46.18802153517006" font-size="8" transform="translate(0,3)">5,3</text>
    <text font-family="Arial" x="260" y="46.18802153517006" font-size="8" transform="translate(0,3)">6,3</text>
    <text font-family="Arial" x="300" y="46.18802153517006" font-size="8" transform="translate(0,3)">7,3</text>
    <text font-family="Arial" x="340" y="46.18802153517006" font-size="8" transform="translate(0,3)">8,3</text>
    <text font-family="Arial" x="40" y="57.735026918962575" font-size="8" transform="translate(0,3)">0,4</text>
    <text font-family="Arial" x="80" y="57.735026918962575" font-size="8" transform="translate(0,3)">1,4</text>
    <text font-family="Arial" x="120" y="57.735026918962575" font-size="8" transform="translate(0,3)">2,4</text>
    <text font-family="Arial" x="160" y="57.735026918962575" font-size="8" transform="translate(0,3)">3,4</text>
    <text font-family="Arial" x="200" y="57.735026918962575" font-size="8" transform="translate(0,3)">4,4</text>
    <text font-family="Arial" x="240" y="57.735026918962575" font-size="8" transform="translate(0,3)">5,4</text>
    <text font-family="Arial" x="280" y="57.735026918962575" font-size="8" transform="translate(0,3)">6,4</text>
    <text font-family="Arial" x="320" y="57.735026918962575" font-size="8" transform="translate(0,3)">7,4</text>
    <text font-family="Arial" x="360" y="57.735026918962575" font-size="8" transform="translate(0,3)">8,4</text>
    <text font-family="Arial" x="20" y="69.28203230275508" font-size="8" transform="translate(0,3)">0,5</text>
    <text font-family="Arial" x="60" y="69.28203230275508" font-size="8" transform="translate(0,3)">1,5</text>
    <text font-family="Arial" x="100" y="69.28203230275508" font-size="8" transform="translate(0,3)">2,5</text>
    <text font-family="Arial" x="140" y="69.28203230275508" font-size="8" transform="translate(0,3)">3,5</text>
    <text font-family="Arial" x="180" y="69.28203230275508" font-size="8" transform="translate(0,3)">4,5</text>
    <text font-family="Arial" x="220" y="69.28203230275508" font-size="8" transform="translate(0,3)">5,5</text>
    <text font-family="Arial" x="260" y="69.28203230275508" font-size="8" transform="translate(0,3)">6,5</text>
    <text font-family="Arial" x="300" y="69.28203230275508" font-size="8" transform="translate(0,3)">7,5</text>
    <text font-family="Arial" x="340" y="69.28203230275508" font-size="8" transform="translate(0,3)">8,5</text>
    <text font-family="Arial" x="40" y="80.8290376865476" font-size="8" transform="translate(0,3)">0,6</text>
    <text font-family="Arial" x="80" y="80.8290376865476" font-size="8" transform="translate(0,3)">1,6</text>
    <text font-family="Arial" x="120" y="80.8290376865476" font-size="8" transform="translate(0,3)">2,6</text>
    <text font-family="Arial" x="160" y="80.8290376865476" font-size="8" transform="translate(0,3)">3,6</text>
    <text font-family="Arial" x="200" y="80.8290376865476" font-size="8" transform="translate(0,3)">4,6</text>
    <text font-family="Arial" x="240" y="80.8290376865476" font-size="8" transform="translate(0,3)">5,6</text>
    <text font-family="Arial" x="280" y="80.8290376865476" font-size="8" transform="translate(0,3)">6,6</text>
    <text font-family="Arial" x="320" y="80.8290376865476" font-size="8" transform="translate(0,3)">7,6</text>
    <text font-family="Arial" x="360" y="80.8290376865476" font-size="8" transform="translate(0,3)">8,6</text>
    <text font-family="Arial" x="20" y="92.37604307034012" font-size="8" transform="translate(0,3)">0,7</text>
    <text font-family="Arial" x="60" y="92.37604307034012" font-size="8" transform="translate(0,3)">1,7</text>
    <text font-family="Arial" x="100" y="92.37604307034012" font-size="8" transform="translate(0,3)">2,7</text>
    <text font-family="Arial" x="140" y="92.37604307034012" font-size="8" transform="translate(0,3)">3,7</text>
    <text font-family="Arial" x="180" y="92.37604307034012" font-size="8" transform="translate(0,3)">4,7</text>
    <text font-family="Arial" x="220" y="92.37604307034012" font-size="8" transform="translate(0,3)">5,7</text>
    <text font-family="Arial" x="260" y="92.37604307034012" font-size="8" transform="translate(0,3)">6,7</text>
    <text font-family="Arial" x="300" y="92.37604307034012" font-size="8" transform="translate(0,3)">7,7</text>
    <text font-family="Arial" x="340" y="92.37604307034012" font-size="8" transform="translate(0,3)">8,7</text>
    <text font-family="Arial" x="40" y="103.92304845413263" font-size="8" transform="translate(0,3)">0,8</text>
    <text font-family="Arial" x="80" y="103.92304845413263" font-size="8" transform="translate(0,3)">1,8</text>
    <text font-family="Arial" x="120" y="103.92304845413263" font-size="8" transform="translate(0,3)">2,8</text>
    <text font-family="Arial" x="160" y="103.92304845413263" font-size="8" transform="translate(0,3)">3,8</text>
    <text font-family="Arial" x="200" y="103.92304845413263" font-size="8" transform="translate(0,3)">4,8</text>
    <text font-family="Arial" x="240" y="103.92304845413263" font-size="8" transform="translate(0,3)">5,8</text>
    <text font-family="Arial" x="280" y="103.92304845413263" font-size="8" transform="translate(0,3)">6,8</text>
    <text font-family="Arial" x="320" y="103.92304845413263" font-size="8" transform="translate(0,3)">7,8</text>
    <text font-family="Arial" x="360" y="103.92304845413263" font-size="8" transform="translate(0,3)">8,8</text>
    <text font-family="Arial" x="20" y="115.47005383792514" font-size="8" transform="translate(0,3)">0,9</text>
    <text font-family="Arial" x="60" y="115.47005383792514" font-size="8" transform="translate(0,3)">1,9</text>
    <text font-family="Arial" x="100" y="115.47005383792514" font-size="8" transform="translate(0,3)">2,9</text>
    <text font-family="Arial" x="140" y="115.47005383792514" font-size="8" transform="translate(0,3)">3,9</text>
    <text font-family="Arial" x="180" y="115.47005383792514" font-size="8" transform="translate(0,3)">4,9</text>
    <text font-family="Arial" x="220" y="115.47005383792514" font-size="8" transform="translate(0,3)">5,9</text>
    <text font-family="Arial" x="260" y="115.47005383792514" font-size="8" transform="translate(0,3)">6,9</text>
    <text font-family="Arial" x="300" y="115.47005383792514" font-size="8" transform="translate(0,3)">7,9</text>
    <text font-family="Arial" x="340" y="115.47005383792514" font-size="8" transform="translate(0,3)">8,9</text>
    <text font-family="Arial" x="40" y="127.01705922171766" font-size="8" transform="translate(0,3)">0,10</text>
    <text font-family="Arial" x="80" y="127.01705922171766" font-size="8" transform="translate(0,3)">1,10</text>
    <text font-family="Arial" x="120" y="127.01705922171766" font-size="8" transform="translate(0,3)">2,10</text>
    <text font-family="Arial" x="160" y="127.01705922171766" font-size="8" transform="translate(0,3)">3,10</text>
    <text font-family="Arial" x="200" y="127.01705922171766" font-size="8" transform="translate(0,3)">4,10</text>
    <text font-family="Arial" x="240" y="127.01705922171766" font-size="8" transform="translate(0,3)">5,10</text>
    <text font-family="Arial" x="280" y="127.01705922171766" font-size="8" transform="translate(0,3)">6,10</text>
    <text font-family="Arial" x="320" y="127.01705922171766" font-size="8" transform="translate(0,3)">7,10</text>
    <text font-family="Arial" x="360" y="127.01705922171766" font-size="8" transform="translate(0,3)">8,10</text>
    <text font-family="Arial" x="20" y="138.56406460551017" font-size="8" transform="translate(0,3)">0,11</text>
    <text font-family="Arial" x="60" y="138.56406460551017" font-size="8" transform="translate(0,3)">1,11</text>
    <text font-family="Arial" x="100" y="138.56406460551017" font-size="8" transform="translate(0,3)">2,11</text>
    <text font-family="Arial" x="140" y="138.56406460551017" font-size="8" transform="translate(0,3)">3,11</text>
    <text font-family="Arial" x="180" y="138.56406460551017" font-size="8" transform="translate(0,3)">4,11</text>
    <text font-family="Arial" x="220" y="138.56406460551017" font-size="8" transform="translate(0,3)">5,11</text>
    <text font-family="Arial" x="260" y="138.56406460551017" font-size="8" transform="translate(0,3)">6,11</text>
    <text font-family="Arial" x="300" y="138.56406460551017" font-size="8" transform="translate(0,3)">7,11</text>
    <text font-family="Arial" x="340" y="138.56406460551017" font-size="8" transform="translate(0,3)">8,11</text>
    <text font-family="Arial" x="40" y="150.11106998930268" font-size="8" transform="translate(0,3)">0,12</text>
    <text font-family="Arial" x="80" y="150.11106998930268" font-size="8" transform="translate(0,3)">1,12</text>
    <text font-family="Arial" x="120" y="150.11106998930268" font-size="8" transform="translate(0,3)">2,12</text>
    <text font-family="Arial" x="160" y="150.11106998930268" font-size="8" transform="translate(0,3)">3,12</text>
    <text font-family="Arial" x="200" y="150.11106998930268" font-size="8" transform="translate(0,3)">4,12</text>
    <text font-family="Arial" x="240" y="150.11106998930268" font-size="8" transform="translate(0,3)">5,12</text>
    <text font-family="Arial" x="280" y="150.11106998930268" font-size="8" transform="translate(0,3)">6,12</text>
    <text font-family="Arial" x="320" y="150.11106998930268" font-size="8" transform="translate(0,3)">7,12</text>
    <text font-family="Arial" x="360" y="150.11106998930268" font-size="8" transform="translate(0,3)">8,12</text>
    <text font-family="Arial" x="20" y="161.6580753730952" font-size="8" transform="translate(0,3)">0,13</text>
    <text font-family="Arial" x="60" y="161.6580753730952" font-size="8" transform="translate(0,3)">1,13</text>
    <text font-family="Arial" x="100" y="161.6580753730952" font-size="8" transform="translate(0,3)">2,13</text>
    <text font-family="Arial" x="140" y="161.6580753730952" font-size="8" transform="translate(0,3)">3,13</text>
    <text font-family="Arial" x="180" y="161.6580753730952" font-size="8" transform="translate(0,3)">4,13</text>
    <text font-family="Arial" x="220" y="161.6580753730952" font-size="8" transform="translate(0,3)">5,13</text>
    <text font-family="Arial" x="260" y="161.6580753730952" font-size="8" transform="translate(0,3)">6,13</text>
    <text font-family="Arial" x="300" y="161.6580753730952" font-size="8" transform="translate(0,3)">7,13</text>
    <text font-family="Arial" x="340" y="161.6580753730952" font-size="8" transform="translate(0,3)">8,13</text>
    <text font-family="Arial" x="40" y="173.20508075688772" font-size="8" transform="translate(0,3)">0,14</text>
    <text font-family="Arial" x="80" y="173.20508075688772" font-size="8" transform="translate(0,3)">1,14</text>
    <text font-family="Arial" x="120" y="173.20508075688772" font-size="8" transform="translate(0,3)">2,14</text>
    <text font-family="Arial" x="160" y="173.20508075688772" font-size="8" transform="translate(0,3)">3,14</text>
    <text font-family="Arial" x="200" y="173.20508075688772" font-size="8" transform="translate(0,3)">4,14</text>
    <text font-family="Arial" x="240" y="173.20508075688772" font-size="8" transform="translate(0,3)">5,14</text>
    <text font-family="Arial" x="280" y="173.20508075688772" font-size="8" transform="translate(0,3)">6,14</text>
    <text font-family="Arial" x="320" y="173.20508075688772" font-size="8" transform="translate(0,3)">7,14</text>
    <text font-family="Arial" x="360" y="173.20508075688772" font-size="8" transform="translate(0,3)">8,14</text>
    <text font-family="Arial" x="20" y="184.75208614068023" font-size="8" transform="translate(0,3)">0,15</text>
    <text font-family="Arial" x="60" y="184.75208614068023" font-size="8" transform="translate(0,3)">1,15</text>
    <text font-family="Arial" x="100" y="184.75208614068023" font-size="8" transform="translate(0,3)">2,15</text>
    <text font-family="Arial" x="140" y="184.75208614068023" font-size="8" transform="translate(0,3)">3,15</text>
    <text font-family="Arial" x="180" y="184.75208614068023" font-size="8" transform="translate(0,3)">4,15</text>
    <text font-family="Arial" x="220" y="184.75208614068023" font-size="8" transform="translate(0,3)">5,15</text>
    <text font-family="Arial" x="260" y="184.75208614068023" font-size="8" transform="translate(0,3)">6,15</text>
    <text font-family="Arial" x="300" y="184.75208614068023" font-size="8" transform="translate(0,3)">7,15</text>
    <text font-family="Arial" x="340" y="184.75208614068023" font-size="8" transform="translate(0,3)">8,15</text>
    <text font-family="Arial" x="40" y="196.29909152447274" font-size="8" transform="translate(0,3)">0,16</text>
    <text font-family="Arial" x="80" y="196.29909152447274" font-size="8" transform="translate(0,3)">1,16</text>
    <text font-family="Arial" x="120" y="196.29909152447274" font-size="8" transform="translate(0,3)">2,16</text>
    <text font-family="Arial" x="160" y="196.29909152447274" font-size="8" transform="translate(0,3)">3,16</text>
    <text font-family="Arial" x="200" y="196.29909152447274" font-size="8" transform="translate(0,3)">4,16</text>
    <text font-family="Arial" x="240" y="196.29909152447274" font-size="8" transform="translate(0,3)">5,16</text>
    <text font-family="Arial" x="280" y="196.29909152447274" font-size="8" transform="translate(0,3)">6,16</text>
    <text font-family="Arial" x="320" y="196.29909152447274" font-size="8" transform="translate(0,3)">7,16</text>
    <text font-family="Arial" x="360" y="196.29909152447274" font-size="8" transform="translate(0,3)">8,16</text>
    <text font-family="Arial" x="20" y="207.84609690826525" font-size="8" transform="translate(0,3)">0,17</text>
    <text font-family="Arial" x="60" y="207.84609690826525" font-size="8" transform="translate(0,3)">1,17</text>
    <text font-family="Arial" x="100" y="207.84609690826525" font-size="8" transform="translate(0,3)">2,17</text>
    <text font-family="Arial" x="140" y="207.84609690826525" font-size="8" transform="translate(0,3)">3,17</text>
    <text font-family="Arial" x="180" y="207.84609690826525" font-size="8" transform="translate(0,3)">4,17</text>
    <text font-family="Arial" x="220" y="207.84609690826525" font-size="8" transform="translate(0,3)">5,17</text>
    <text font-family="Arial" x="260" y="207.84609690826525" font-size="8" transform="translate(0,3)">6,17</text>
    <text font-family="Arial" x="300" y="207.84609690826525" font-size="8" transform="translate(0,3)">7,17</text>
    <text font-family="Arial" x="340" y="207.84609690826525" font-size="8" transform="translate(0,3)">8,17</text>
    <text font-family="Arial" x="40" y="219.39310229205776" font-size="8" transform="translate(0,3)">0,18</text>
    <text font-family="Arial" x="80" y="219.39310229205776" font-size="8" transform="translate(0,3)">1,18</text>
    <text font-family="Arial" x="120" y="219.39310229205776" font-size="8" transform="translate(0,3)">2,18</text>
    <text font-family="Arial" x="160" y="219.39310229205776" font-size="8" transform="translate(0,3)">3,18</text>
    <text font-family="Arial" x="200" y="219.39310229205776" font-size="8" transform="translate(0,3)">4,18</text>
    <text font-family="Arial" x="240" y="219.39310229205776" font-size="8" transform="translate(0,3)">5,18</text>
    <text font-family="Arial" x="280" y="219.39310229205776" font-size="8" transform="translate(0,3)">6,18</text>
    <text font-family="Arial" x="320" y="219.39310229205776" font-size="8" transform="translate(0,3)">7,18</text>
    <text font-family="Arial" x="360" y="219.39310229205776" font-size="8" transform="translate(0,3)">8,18</text>
    <text font-family="Arial" x="20" y="230.9401076758503" font-size="8" transform="translate(0,3)">0,19</text>
    <text font-family="Arial" x="60" y="230.9401076758503" font-size="8" transform="translate(0,3)">1,19</text>
    <text font-family="Arial" x="100" y="230.9401076758503" font-size="8" transform="translate(0,3)">2,19</text>
    <text font-family="Arial" x="140" y="230.9401076758503" font-size="8" transform="translate(0,3)">3,19</text>
    <text font-family="Arial" x="180" y="230.9401076758503" font-size="8" transform="translate(0,3)">4,19</text>
    <text font-family="Arial" x="220" y="230.9401076758503" font-size="8" transform="translate(0,3)">5,19</text>
    <text font-family="Arial" x="260" y="230.9401076758503" font-size="8" transform="translate(0,3)">6,19</text>
    <text font-family="Arial" x="300" y="230.9401076758503" font-size="8" transform="translate(0,3)">7,19</text>
    <text font-family="Arial" x="340" y="230.9401076758503" font-size="8" transform="translate(0,3)">8,19</text>
    <text font-family="Arial" x="40" y="242.4871130596428" font-size="8" transform="translate(0,3)">0,20</text>
    <text font-family="Arial" x="80" y="242.4871130596428" font-size="8" transform="translate(0,3)">1,20</text>
    <text font-family="Arial" x="120" y="242.4871130596428" font-size="8" transform="translate(0,3)">2,20</text>
    <text font-family="Arial" x="160" y="242.4871130596428" font-size="8" transform="translate(0,3)">3,20</text>
    <text font-family="Arial" x="200" y="242.4871130596428" font-size="8" transform="translate(0,3)">4,20</text>
    <text font-family="Arial" x="240" y="242.4871130596428" font-size="8" transform="translate(0,3)">5,20</text>
    <text font-family="Arial" x="280" y="242.4871130596428" font-size="8" transform="translate(0,3)">6,20</text>
    <text font-family="Arial" x="320" y="242.4871130596428" font-size="8" transform="translate(0,3)">7,20</text>
    <text font-family="Arial" x="360" y="242.4871130596428" font-size="8" transform="translate(0,3)">8,20</text>
    <text font-family="Arial" x="20" y="254.03411844343532" font-size="8" transform="translate(0,3)">0,21</text>
    <text font-family="Arial" x="60" y="254.03411844343532" font-size="8" transform="translate(0,3)">1,21</text>
    <text font-family="Arial" x="100" y="254.03411844343532" font-size="8" transform="translate(0,3)">2,21</text>
    <text font-family="Arial" x="140" y="254.03411844343532" font-size="8" transform="translate(0,3)">3,21</text>
    <text font-family="Arial" x="180" y="254.03411844343532" font-size="8" transform="translate(0,3)">4,21</text>
    <text font-family="Arial" x="220" y="254.03411844343532" font-size="8" transform="translate(0,3)">5,21</text>
    <text font-family="Arial" x="260" y="254.03411844343532" font-size="8" transform="translate(0,3)">6,21</text>
    <text font-family="Arial" x="300" y="254.03411844343532" font-size="8" transform="translate(0,3)">7,21</text>
    <text font-family="Arial" x="340" y="254.03411844343532" font-size="8" transform="translate(0,3)">8,21</text>
    <text font-family="Arial" x="40" y="265.5811238272278" font-size="8" transform="translate(0,3)">0,22</text>
    <text font-family="Arial" x="80" y="265.5811238272278" font-size="8" transform="translate(0,3)">1,22</text>
    <text font-family="Arial" x="120" y="265.5811238272278" font-size="8" transform="translate(0,3)">2,22</text>
    <text font-family="Arial" x="160" y="265.5811238272278" font-size="8" transform="translate(0,3)">3,22</text>
    <text font-family="Arial" x="200" y="265.5811238272278" font-size="8" transform="translate(0,3)">4,22</text>
    <text font-family="Arial" x="240" y="265.5811238272278" font-size="8" transform="translate(0,3)">5,22</text>
    <text font-family="Arial" x="280" y="265.5811238272278" font-size="8" transform="translate(0,3)">6,22</text>
    <text font-family="Arial" x="320" y="265.5811238272278" font-size="8" transform="translate(0,3)">7,22</text>
    <text font-family="Arial" x="360" y="265.5811238272278" font-size="8" transform="translate(0,3)">8,22</text>
    <text font-family="Arial" x="20" y="277.12812921102034" font-size="8" transform="translate(0,3)">0,23</text>
    <text font-family="Arial" x="60" y="277.12812921102034" font-size="8" transform="translate(0,3)">1,23</text>
    <text font-family="Arial" x="100" y="277.12812921102034" font-size="8" transform="translate(0,3)">2,23</text>
    <text font-family="Arial" x="140" y="277.12812921102034" font-size="8" transform="translate(0,3)">3,23</text>
    <text font-family="Arial" x="180" y="277.12812921102034" font-size="8" transform="translate(0,3)">4,23</text>
    <text font-family="Arial" x="220" y="277.12812921102034" font-size="8" transform="translate(0,3)">5,23</text>
    <text font-family="Arial" x="260" y="277.12812921102034" font-size="8" transform="translate(0,3)">6,23</text>
    <text font-family="Arial" x="300" y="277.12812921102034" font-size="8" transform="translate(0,3)">7,23</text>
    <text font-family="Arial" x="340" y="277.12812921102034" font-size="8" transform="translate(0,3)">8,23</text>
    <text font-family="Arial" x="40" y="288.67513459481285" font-size="8" transform="translate(0,3)">0,24</text>
    <text font-family="Arial" x="80" y="288.67513459481285" font-size="8" transform="translate(0,3)">1,24</text>
    <text font-family="Arial" x="120" y="288.67513459481285" font-size="8" transform="translate(0,3)">2,24</text>
    <text font-family="Arial" x="160" y="288.67513459481285" font-size="8" transform="translate(0,3)">3,24</text>
    <text font-family="Arial" x="200" y="288.67513459481285" font-size="8" transform="translate(0,3)">4,24</text>
    <text font-family="Arial" x="240" y="288.67513459481285" font-size="8" transform="translate(0,3)">5,24</text>
    <text font-family="Arial" x="280" y="288.67513459481285" font-size="8" transform="translate(0,3)">6,24</text>
    <text font-family="Arial" x="320" y="288.67513459481285" font-size="8" transform="translate(0,3)">7,24</text>
    <text font-family="Arial" x="360" y="288.67513459481285" font-size="8" transform="translate(0,3)">8,24</text>
    <text font-family="Arial" x="20" y="300.22213997860536" font-size="8" transform="translate(0,3)">0,25</text>
    <text font-family="Arial" x="60" y="300.22213997860536" font-size="8" transform="translate(0,3)">1,25</text>
    <text font-family="Arial" x="100" y="300.22213997860536" font-size="8" transform="translate(0,3)">2,25</text>
    <text font-family="Arial" x="140" y="300.22213997860536" font-size="8" transform="translate(0,3)">3,25</text>
    <text font-family="Arial" x="180" y="300.22213997860536" font-size="8" transform="translate(0,3)">4,25</text>
    <text font-family="Arial" x="220" y="300.22213997860536" font-size="8" transform="translate(0,3)">5,25</text>
    <text font-family="Arial" x="260" y="300.22213997860536" font-size="8" transform="translate(0,3)">6,25</text>
    <text font-family="Arial" x="300" y="300.22213997860536" font-size="8" transform="translate(0,3)">7,25</text>
    <text font-family="Arial" x="340" y="300.22213997860536" font-size="8" transform="translate(0,3)">8,25</text>
    <text font-family="Arial" x="40" y="311.76914536239786" font-size="8" transform="translate(0,3)">0,26</text>
    <text font-family="Arial" x="80" y="311.76914536239786" font-size="8" transform="translate(0,3)">1,26</text>
    <text font-family="Arial" x="120" y="311.76914536239786" font-size="8" transform="translate(0,3)">2,26</text>
    <text font-family="Arial" x="160" y="311.76914536239786" font-size="8" transform="translate(0,3)">3,26</text>
    <text font-family="Arial" x="200" y="311.76914536239786" font-size="8" transform="translate(0,3)">4,26</text>
    <text font-family="Arial" x="240" y="311.76914536239786" font-size="8" transform="translate(0,3)">5,26</text>
    <text font-family="Arial" x="280" y="311.76914536239786" font-size="8" transform="translate(0,3)">6,26</text>
    <text font-family="Arial" x="320" y="311.76914536239786" font-size="8" transform="translate(0,3)">7,26</text>
    <text font-family="Arial" x="360" y="311.76914536239786" font-size="8" transform="translate(0,3)">8,26</text>
    <text font-family="Arial" x="20" y="323.31615074619043" font-size="8" transform="translate(0,3)">0,27</text>
    <text font-family="Arial" x="60" y="323.31615074619043" font-size="8" transform="translate(0,3)">1,27</text>
    <text font-family="Arial" x="100" y="323.31615074619043" font-size="8" transform="translate(0,3)">2,27</text>
    <text font-family="Arial" x="140" y="323.31615074619043" font-size="8" transform="translate(0,3)">3,27</text>
    <text font-family="Arial" x="180" y="323.31615074619043" font-size="8" transform="translate(0,3)">4,27</text>
    <text font-family="Arial" x="220" y="323.31615074619043" font-size="8" transform="translate(0,3)">5,27</text>
    <text font-family="Arial" x="260" y="323.31615074619043" font-size="8" transform="translate(0,3)">6,27</text>
    <text font-family="Arial" x="300" y="323.31615074619043" font-size="8" transform="translate(0,3)">7,27</text>
    <text font-family="Arial" x="340" y="323.31615074619043" font-size="8" transform="translate(0,3)">8,27</text>
    <text font-family="Arial" x="40" y="334.86315612998294" font-size="8" transform="translate(0,3)">0,28</text>
    <text font-family="Arial" x="80" y="334.86315612998294" font-size="8" transform="translate(0,3)">1,28</text>
    <text font-family="Arial" x="120" y="334.86315612998294" font-size="8" transform="translate(0,3)">2,28</text>
    <text font-family="Arial" x="160" y="334.86315612998294" font-size="8" transform="translate(0,3)">3,28</text>
    <text font-family="Arial" x="200" y="334.86315612998294" font-size="8" transform="translate(0,3)">4,28</text>
    <text font-family="Arial" x="240" y="334.86315612998294" font-size="8" transform="translate(0,3)">5,28</text>
    <text font-family="Arial" x="280" y="334.86315612998294" font-size="8" transform="translate(0,3)">6,28</text>
    <text font-family="Arial" x="320" y="334.86315612998294" font-size="8" transform="translate(0,3)">7,28</text>
    <text font-family="Arial" x="360" y="334.86315612998294" font-size="8" transform="translate(0,3)">8,28</text>
    <text font-family="Arial" x="20" y="346.41016151377545" font-size="8" transform="translate(0,3)">0,29</text>
    <text font-family="Arial" x="60" y="346.41016151377545" font-size="8" transform="translate(0,3)">1,29</text>
    <text font-family="Arial" x="100" y="346.41016151377545" font-size="8" transform="translate(0,3)">2,29</text>
    <text font-family="Arial" x="140" y="346.41016151377545" font-size="8" transform="translate(0,3)">3,29</text>
    <text font-family="Arial" x="180" y="346.41016151377545" font-size="8" transform="translate(0,3)">4,29</text>
    <text font-family="Arial" x="220" y="346.41016151377545" font-size="8" transform="translate(0,3)">5,29</text>
    <text font-family="Arial" x="260" y="346.41016151377545" font-size="8" transform="translate(0,3)">6,29</text>
    <text font-family="Arial" x="300" y="346.41016151377545" font-size="8" transform="translate(0,3)">7,29</text>
    <text font-family="Arial" x="340" y="346.41016151377545" font-size="8" transform="translate(0,3)">8,29</text>
    <text font-family="Arial" x="40" y="357.95716689756796" font-size="8" transform="translate(0,3)">0,30</text>
    <text font-family="Arial" x="80" y="357.95716689756796" font-size="8" transform="translate(0,3)">1,30</text>
    <text font-family="Arial" x="120" y="357.95716689756796" font-size="8" transform="translate(0,3)">2,30</text>
    <text font-family="Arial" x="160" y="357.95716689756796" font-size="8" transform="translate(0,3)">3,30</text>
    <text font-family="Arial" x="200" y="357.95716689756796" font-size="8" transform="translate(0,3)">4,30</text>
    <text font-family="Arial" x="240" y="357.95716689756796" font-size="8" transform="translate(0,3)">5,30</text>
    <text font-family="Arial" x="280" y="357.95716689756796" font-size="8" transform="translate(0,3)">6,30</text>
    <text font-family="Arial" x="320" y="357.95716689756796" font-size="8" transform="translate(0,3)">7,30</text>
    <text font-family="Arial" x="360" y="357.95716689756796" font-size="8" transform="translate(0,3)">8,30</text>
    <text font-family="Arial" x="20" y="369.50417228136047" font-size="8" transform="translate(0,3)">0,31</text>
    <text font-family="Arial" x="60" y="369.50417228136047" font-size="8" transform="translate(0,3)">1,31</text>
    <text font-family="Arial" x="100" y="369.50417228136047" font-size="8" transform="translate(0,3)">2,31</text>
    <text font-family="Arial" x="140" y="369.50417228136047" font-size="8" transform="translate(0,3)">3,31</text>
    <text font-family="Arial" x="180" y="369.50417228136047" font-size="8" transform="translate(0,3)">4,31</text>
    <text font-family="Arial" x="220" y="369.50417228136047" font-size="8" transform="translate(0,3)">5,31</text>
    <text font-family="Arial" x="260" y="369.50417228136047" font-size="8" transform="translate(0,3)">6,31</text>
    <text font-family="Arial" x="300" y="369.50417228136047" font-size="8" transform="translate(0,3)">7,31</text>
    <text font-family="Arial" x="340" y="369.50417228136047" font-size="8" transform="translate(0,3)">8,31</text>
    <text font-family="Arial" x="40" y="381.051177665153" font-size="8" transform="translate(0,3)">0,32</text>
    <text font-family="Arial" x="80" y="381.051177665153" font-size="8" transform="translate(0,3)">1,32</text>
    <text font-family="Arial" x="120" y="381.051177665153" font-size="8" transform="translate(0,3)">2,32</text>
    <text font-family="Arial" x="160" y="381.051177665153" font-size="8" transform="translate(0,3)">3,32</text>
    <text font-family="Arial" x="200" y="381.051177665153" font-size="8" transform="translate(0,3)">4,32</text>
    <text font-family="Arial" x="240" y="381.051177665153" font-size="8" transform="translate(0,3)">5,32</text>
    <text font-family="Arial" x="280" y="381.051177665153" font-size="8" transform="translate(0,3)">6,32</text>
    <text font-family="Arial" x="320" y="381.051177665153" font-size="8" transform="translate(0,3)">7,32</text>
    <text font-family="Arial" x="360" y="381.051177665153" font-size="8" transform="translate(0,3)">8,32</text>
    <text font-family="Arial" x="20" y="392.5981830489455" font-size="8" transform="translate(0,3)">0,33</text>
    <text font-family="Arial" x="60" y="392.5981830489455" font-size="8" transform="translate(0,3)">1,33</text>
    <text font-family="Arial" x="100" y="392.5981830489455" font-size="8" transform="translate(0,3)">2,33</text>
    <text font-family="Arial" x="140" y="392.5981830489455" font-size="8" transform="translate(0,3)">3,33</text>
    <text font-family="Arial" x="180" y="392.5981830489455" font-size="8" transform="translate(0,3)">4,33</text>
    <text font-family="Arial" x="220" y="392.5981830489455" font-size="8" transform="translate(0,3)">5,33</text>
    <text font-family="Arial" x="260" y="392.5981830489455" font-size="8" transform="translate(0,3)">6,33</text>
    <text font-family="Arial" x="300" y="392.5981830489455" font-size="8" transform="translate(0,3)">7,33</text>
    <text font-family="Arial" x="340" y="392.5981830489455" font-size="8" transform="translate(0,3)">8,33</text>
    <text font-family="Arial" x="40" y="404.145188432738" font-size="8" transform="translate(0,3)">0,34</text>
    <text font-family="Arial" x="80" y="404.145188432738" font-size="8" transform="translate(0,3)">1,34</text>
    <text font-family="Arial" x="120" y="404.145188432738" font-size="8" transform="translate(0,3)">2,34</text>
    <text font-family="Arial" x="160" y="404.145188432738" font-size="8" transform="translate(0,3)">3,34</text>
    <text font-family="Arial" x="200" y="404.145188432738" font-size="8" transform="translate(0,3)">4,34</text>
    <text font-family="Arial" x="240" y="404.145188432738" font-size="8" transform="translate(0,3)">5,34</text>
    <text font-family="Arial" x="280" y="404.145188432738" font-size="8" transform="translate(0,3)">6,34</text>
    <text font-family="Arial" x="320" y="404.145188432738" font-size="8" transform="translate(0,3)">7,34</text>
    <text font-family="Arial" x="360" y="404.145188432738" font-size="8" transform="translate(0,3)">8,34</text>
    <text font-family="Arial" x="20" y="415.6921938165305" font-size="8" transform="translate(0,3)">0,35</text>
    <text font-family="Arial" x="60" y="415.6921938165305" font-size="8" transform="translate(0,3)">1,35</text>
    <text font-family="Arial" x="100" y="415.6921938165305" font-size="8" transform="translate(0,3)">2,35</text>
    <text font-family="Arial" x="140" y="415.6921938165305" font-size="8" transform="translate(0,3)">3,35</text>
    <text font-family="Arial" x="180" y="415.6921938165305" font-size="8" transform="translate(0,3)">4,35</text>
    <text font-family="Arial" x="220" y="415.6921938165305" font-size="8" transform="translate(0,3)">5,35</text>
    <text font-family="Arial" x="260" y="415.6921938165305" font-size="8" transform="translate(0,3)">6,35</text>
    <text font-family="Arial" x="300" y="415.6921938165305" font-size="8" transform="translate(0,3)">7,35</text>
    <text font-family="Arial" x="340" y="415.6921938165305" font-size="8" transform="translate(0,3)">8,35</text>
    <text font-family="Arial" x="40" y="427.239199200323" font-size="8" transform="translate(0,3)">0,36</text>
    <text font-family="Arial" x="80" y="427.239199200323" font-size="8" transform="translate(0,3)">1,36</text>
    <text font-family="Arial" x="120" y="427.239199200323" font-size="8" transform="translate(0,3)">2,36</text>
    <text font-family="Arial" x="160" y="427.239199200323" font-size="8" transform="translate(0,3)">3,36</text>
    <text font-family="Arial" x="200" y="427.239199200323" font-size="8" transform="translate(0,3)">4,36</text>
    <text font-family="Arial" x="240" y="427.239199200323" font-size="8" transform="translate(0,3)">5,36</text>
    <text font-family="Arial" x="280" y="427.239199200323" font-size="8" transform="translate(0,3)">6,36</text>
    <text font-family="Arial" x="320" y="427.239199200323" font-size="8" transform="translate(0,3)">7,36</text>
    <text font-family="Arial" x="360" y="427.239199200323" font-size="8" transform="translate(0,3)">8,36</text>
    <text font-family="Arial" x="20" y="438.7862045841155" font-size="8" transform="translate(0,3)">0,37</text>
    <text font-family="Arial" x="60" y="438.7862045841155" font-size="8" transform="translate(0,3)">1,37</text>
    <text font-family="Arial" x="100" y="438.7862045841155" font-size="8" transform="translate(0,3)">2,37</text>
    <text font-family="Arial" x="140" y="438.7862045841155" font-size="8" transform="translate(0,3)">3,37</text>
    <text font-family="Arial" x="180" y="438.7862045841155" font-size="8" transform="translate(0,3)">4,37</text>
    <text font-family="Arial" x="220" y="438.7862045841155" font-size="8" transform="translate(0,3)">5,37</text>
    <text font-family="Arial" x="260" y="438.7862045841155" font-size="8" transform="translate(0,3)">6,37</text>
    <text font-family="Arial" x="300" y="438.7862045841155" font-size="8" transform="translate(0,3)">7,37</text>
    <text font-family="Arial" x="340" y="438.7862045841155" font-size="8" transform="translate(0,3)">8,37</text>
    <text font-family="Arial" x="40" y="450.3332099679081" font-size="8" transform="translate(0,3)">0,38</text>
    <text font-family="Arial" x="80" y="450.3332099679081" font-size="8" transform="translate(0,3)">1,38</text>
    <text font-family="Arial" x="120" y="450.3332099679081" font-size="8" transform="translate(0,3)">2,38</text>
    <text font-family="Arial" x="160" y="450.3332099679081" font-size="8" transform="translate(0,3)">3,38</text>
    <text font-family="Arial" x="200" y="450.3332099679081" font-size="8" transform="translate(0,3)">4,38</text>
    <text font-family="Arial" x="240" y="450.3332099679081" font-size="8" transform="translate(0,3)">5,38</text>
    <text font-family="Arial" x="280" y="450.3332099679081" font-size="8" transform="translate(0,3)">6,38</text>
    <text font-family="Arial" x="320" y="450.3332099679081" font-size="8" transform="translate(0,3)">7,38</text>
    <text font-family="Arial" x="360" y="450.3332099679081" font-size="8" transform="translate(0,3)">8,38</text>
    <text font-family="Arial" x="20" y="461.8802153517006" font-size="8" transform="translate(0,3)">0,39</text>
    <text font-family="Arial" x="60" y="461.8802153517006" font-size="8" transform="translate(0,3)">1,39</text>
    <text font-family="Arial" x="100" y="461.8802153517006" font-size="8" transform="translate(0,3)">2,39</text>
    <text font-family="Arial" x="140" y="461.8802153517006" font-size="8" transform="translate(0,3)">3,39</text>
    <text font-family="Arial" x="180" y="461.8802153517006" font-size="8" transform="translate(0,3)">4,39</text>
    <text font-family="Arial" x="220" y="461.8802153517006" font-size="8" transform="translate(0,3)">5,39</text>
    <text font-family="Arial" x="260" y="461.8802153517006" font-size="8" transform="translate(0,3)">6,39</text>
    <text font-family="Arial" x="300" y="461.8802153517006" font-size="8" transform="translate(0,3)">7,39</text>
    <text font-family="Arial" x="340" y="461.8802153517006" font-size="8" transform="translate(0,3)">8,39</text>
  </g>
  <polygon stroke="rgba(255,0,0,0.1)" stroke-width="1" fill="none"
      points="0,0 360,0 360,473.4272207354931 0,473.4272207354931" />
</svg>
