<?xml version="1.0" encoding="utf-8"?>
<!-- Generator: Adobe Illustrator 19.1.0, SVG Export Plug-In . SVG Version: 6.00 Build 0)  -->
<!DOCTYPE svg PUBLIC "-//W3C//DTD SVG 1.1//EN" "http://www.w3.org/Graphics/SVG/1.1/DTD/svg11.dtd">
<svg version="1.1" xmlns="http://www.w3.org/2000/svg" xmlns:xlink="http://www.w3.org/1999/xlink" x="0px" y="0px" width="401px"
	 height="121px" viewBox="0 0 401 121" enable-background="new 0 0 401 121" xml:space="preserve">
<g>
	<polygon opacity="0.44" points="308.2,97.9 275.9,78.4 243.4,98.4 275.4,116.6 	"/>
	<polygon fill="none" stroke="#000000" stroke-width="4" stroke-miterlimit="10" points="248.1,91.6 280.6,109.4 313.1,91.1
		313.7,43.6 306.6,38.7 307.2,32.4 292.4,23.7 284.1,26.6 280.7,24.2 274.4,28.9 261.4,32.4 261.2,37.6 248.4,45.4 	"/>
	<polygon fill="#7C3A04" points="248.4,45.4 280.4,63.6 280.6,109.2 248.4,91.4 	"/>
	<polygon fill="#D85700" points="280.2,63.6 313.2,44.4 313.1,91.1 280.6,109.2 	"/>
	<polygon fill="#E27305" points="313.2,44.9 280.9,25.4 248.4,45.4 280.4,63.6 	"/>
	<polygon fill="#333333" points="292.6,24.4 261.6,32.7 276.7,41.2 307.4,33.1 	"/>
	<polygon fill="#070707" points="277.4,55.7 276.7,41.2 261.3,32.7 261.1,45.6 	"/>
	<polygon fill="#212121" points="276.9,55.6 276.8,41.2 307.4,33.1 307.4,41.1 304.3,40.1 	"/>
	<ellipse transform="matrix(0.8706 -0.4919 0.4919 0.8706 -0.3166 142.9128)" cx="271.6" cy="72.1" rx="5" ry="8.5"/>
	<polygon points="251.4,54.2 249.9,57.2 259.1,67.6 260.9,63.9 	"/>
	<polygon points="274.6,88.4 253.7,80.9 253.9,85.6 274.4,102.7 	"/>
	<polygon fill="#E27305" points="301.7,63.7 294.9,68.1 298.6,70.1 305.9,65.9 	"/>
	<polygon fill="#9E4504" points="298.2,96.2 298.6,70.6 294.4,68.1 294.6,93.7 	"/>
	<polygon fill="#F46403" points="305.6,66.1 305.9,91.7 298.7,95.6 298.6,70.1 	"/>
</g>
<g>
	<polygon opacity="0.44" points="228.4,97.4 193.4,79.2 163.4,100.4 198.7,117.2 	"/>
	<polygon fill="none" stroke="#000000" stroke-width="4" stroke-miterlimit="10" points="168.4,91.4 204.3,109 233.4,88.6
		233.4,42.4 220.7,35.6 221.4,29.9 204.5,26.9 198.6,23.9 197.1,25.9 187.6,23.7 174.4,32.4 173.4,42.4 168.4,45.4 	"/>
	<polygon fill="#7C3A04" points="169.4,45.4 204.7,62.2 205,109 169.4,91.4 	"/>
	<polygon fill="#D85700" points="204.7,62.2 234.4,42.4 234.4,88.6 205,109 	"/>
	<polygon fill="#E27305" points="234.4,42.4 199.4,24.2 169.4,45.4 204.7,62.2 	"/>
	<polygon fill="#333333" points="221.4,30.9 187.9,23.7 174.4,32.4 207.4,40.4 	"/>
	<polygon fill="#212121" points="221.4,44.9 221.4,30.9 207.4,40.4 207.4,54.1 	"/>
	<polygon fill="#070707" points="174.4,42.1 174.4,32.4 207.4,40.4 207.4,54.1 178.1,39.4 	"/>
	<ellipse transform="matrix(0.8817 0.4717 -0.4717 0.8817 55.5996 -99.6638)" cx="226.6" cy="61.1" rx="5" ry="8.5"/>
	<polygon points="208.5,66.6 207,72.3 215.5,71.6 217.2,66.3 	"/>
	<polygon points="229.4,73.8 210.5,91 210.3,95.3 229.4,88 	"/>
	<polygon fill="#E27305" points="181.8,63.4 178.3,66 186.4,69.9 189.9,67.4 	"/>
	<polygon fill="#9E4504" points="186.4,96.1 186.4,69.9 177.9,66 178.4,92 	"/>
	<polygon fill="#D85700" points="190.1,67.8 190,93 186.4,96.1 186.4,69.9 	"/>
</g>
<g>
	<polygon opacity="0.44" points="68.2,97.9 35.9,78.4 3.4,98.4 35.4,116.6 	"/>
	<polygon fill="none" stroke="#000000" stroke-width="4" stroke-miterlimit="10" points="8.1,91.6 40.6,109.4 73.1,91.1 73.7,43.6
		58.4,35.5 58.9,28.8 43.9,20.6 32.7,30.4 21.2,37.6 8.4,45.4 	"/>
	<polygon fill="#7C3A04" points="8.4,45.4 40.4,63.6 40.6,109.2 8.4,91.4 	"/>
	<polygon fill="#D85700" points="40.2,63.6 73.2,44.4 73.1,91.1 40.6,109.2 	"/>
	<polygon fill="#E27305" points="73.2,44.9 40.9,25.4 8.4,45.4 40.4,63.6 	"/>
	<polygon fill="#333333" points="43.9,20.6 13.3,47.6 28.2,55.5 58.5,28.9 	"/>
	<polygon fill="#070707" points="28,75 28.2,55.5 13.4,47.3 13.4,67 	"/>
	<polygon fill="#212121" points="28,75 28.2,55.5 58.5,28.9 58.9,43.1 31.4,58.8 31.5,73.4 	"/>
	<polygon fill="#E27305" points="58.7,65.7 51.9,70.1 55.6,72.1 62.9,67.9 	"/>
	<polygon fill="#9E4504" points="55.2,98.2 55.6,72.6 51.4,70.1 51.6,95.7 	"/>
	<polygon fill="#F46403" points="62.6,68.1 62.9,93.7 55.7,97.6 55.6,72.1 	"/>
	<polygon opacity="0.44" points="148.2,97.9 115.9,78.4 83.4,98.4 115.4,116.6 	"/>
	<polygon fill="none" stroke="#000000" stroke-width="4" stroke-miterlimit="10" points="88.1,91.6 120.6,109.4 153.1,91.1
		153.7,43.6 138.4,35.5 138.9,28.8 123.9,20.6 112.7,30.4 101.2,37.6 88.4,45.4 	"/>
	<polygon fill="#7C3A04" points="88.4,45.4 120.4,63.6 120.6,109.2 88.4,91.4 	"/>
	<polygon fill="#D85700" points="120.2,63.6 153.2,44.4 153.1,91.1 120.6,109.2 	"/>
	<polygon fill="#E27305" points="153.2,44.9 120.9,25.4 88.4,45.4 120.4,63.6 	"/>
	<polygon fill="#333333" points="123.9,20.6 93.3,47.6 108.2,55.5 138.5,28.9 	"/>
	<polygon fill="#070707" points="108,75 108.2,55.5 93.4,47.3 93.4,67 	"/>
	<polygon fill="#212121" points="108,75 108.2,55.5 138.5,28.9 138.9,43.1 111.4,58.8 111.5,73.4 	"/>
	<polygon fill="#E27305" points="138.7,65.7 131.9,70.1 135.6,72.1 142.9,67.9 	"/>
	<polygon fill="#9E4504" points="135.2,98.2 135.6,72.6 131.4,70.1 131.6,95.7 	"/>
	<polygon fill="#F46403" points="142.6,68.1 142.9,93.7 135.7,97.6 135.6,72.1 	"/>
</g>
<g>
	<polygon fill="none" stroke="#000000" stroke-width="4" stroke-miterlimit="10" points="7.4,89.4 40.7,108.9 73.4,90 73.8,42.9
		51.8,31.3 37.2,19.5 22.4,27.4 21.7,35.3 7.4,44.4 	"/>
	<polygon fill="#7C3A04" points="8.4,44.4 41.4,62.4 41,108 8.4,89.4 	"/>
	<polygon fill="#D85700" points="41.4,62.4 73.4,43.4 73.4,89.6 41,108 	"/>
	<polygon fill="#E27305" points="73.4,43.4 38.4,24.2 8.4,44.4 41.4,62.8 	"/>
	<polygon fill="#333333" points="67.9,45.6 37.2,19.5 22.4,27.4 52.9,54.1 	"/>
	<polygon fill="#212121" points="68,65.5 67.9,45.6 52.9,54.1 53.4,73.9 	"/>
	<polygon fill="#070707" points="49.2,57 22.4,41.4 22.4,27.4 52.8,53.8 53.4,73.9 49.5,71.9 	"/>
	<polygon fill="#E27305" points="22,64 18.3,66 25.5,70.5 29.5,68.3 	"/>
	<polygon fill="#9E4504" points="25.4,96.1 25.4,69.9 18.4,66 18.4,92.3 	"/>
	<polygon fill="#D85700" points="29.5,68.3 29.8,94 25.4,96.1 25.5,70.5 	"/>
</g>
<g>
	<polygon fill="none" stroke="#000000" stroke-width="4" stroke-miterlimit="10" points="327.4,89.4 360.7,108.9 393.4,90
		393.8,73.9 358.4,55.2 327.4,75.4 	"/>
	<polygon fill="#232323" points="328.4,75.4 361.4,93.4 361,108 328.4,89.4 	"/>
	<polygon fill="#383838" points="361.4,93.4 393.4,74.4 393.4,89.6 361,108 	"/>
	<polygon fill="#595959" points="393.4,74.4 358.4,55.2 328.4,75.4 361.4,93.8 	"/>
</g>
</svg>
