<?xml version="1.0" encoding="utf-8"?>
<!-- Generator: Adobe Illustrator 19.1.0, SVG Export Plug-In . SVG Version: 6.00 Build 0)  -->
<!DOCTYPE svg PUBLIC "-//W3C//DTD SVG 1.1//EN" "http://www.w3.org/Graphics/SVG/1.1/DTD/svg11.dtd">
<svg version="1.1" xmlns="http://www.w3.org/2000/svg" xmlns:xlink="http://www.w3.org/1999/xlink" x="0px" y="0px" width="80px"
	 height="120px" viewBox="0 0 80 120" enable-background="new 0 0 80 120" xml:space="preserve">
<g id="d0">
	<polygon opacity="0.44" points="67.4,96.9 32.4,77.7 2.4,97.9 35,115.9 	"/>
	<polygon fill="none" stroke="#000000" stroke-width="4" stroke-miterlimit="10" points="6.4,88.9 39.7,108.4 72.4,89.5 72.8,42.4
		50.8,30.8 36.2,19 21.4,26.9 20.7,34.8 6.4,43.9 	"/>
	<polygon fill="#7C3A04" points="7.4,43.9 40.4,61.9 40,107.5 7.4,88.9 	"/>
	<polygon fill="#D85700" points="40.4,61.9 72.4,42.9 72.4,89.1 40,107.5 	"/>
	<polygon fill="#E27305" points="72.4,42.9 37.4,23.7 7.4,43.9 40.4,62.3 	"/>
	<polygon fill="#333333" points="66.9,45.1 36.2,19 21.4,26.9 51.9,53.6 	"/>
	<polygon fill="#212121" points="67,65 66.9,45.1 51.9,53.6 52.4,73.4 	"/>
	<polygon fill="#070707" points="48.2,56.5 21.4,40.9 21.4,26.9 51.8,53.3 52.4,73.4 48.5,71.4 	"/>
	<polygon fill="#E27305" points="21,63.5 17.3,65.5 24.5,70 28.5,67.8 	"/>
	<polygon fill="#9E4504" points="24.4,95.6 24.4,69.4 17.4,65.5 17.4,91.8 	"/>
	<polygon fill="#D85700" points="28.5,67.8 28.8,93.5 24.4,95.6 24.5,70 	"/>
</g>
</svg>
