<?xml version="1.0" encoding="utf-8"?>
<!-- Generator: Adobe Illustrator 19.1.0, SVG Export Plug-In . SVG Version: 6.00 Build 0)  -->
<!DOCTYPE svg PUBLIC "-//W3C//DTD SVG 1.1//EN" "http://www.w3.org/Graphics/SVG/1.1/DTD/svg11.dtd">
<svg version="1.1" xmlns="http://www.w3.org/2000/svg" xmlns:xlink="http://www.w3.org/1999/xlink" x="0px" y="0px" width="80px"
	 height="120px" viewBox="0 0 80 120" enable-background="new 0 0 80 120" xml:space="preserve">
<g>
	<polygon display="inline" opacity="0.44" points="66.4,96.9 31.4,78.7 1.4,99.9 36.7,116.7 	"/>
	<polygon display="inline" fill="none" stroke="#000000" stroke-width="4" stroke-miterlimit="10" points="6.4,90.9 42.3,108.5
		71.4,88.1 71.4,41.9 58.7,35.1 59.4,29.4 42.5,26.4 36.6,23.4 35.1,25.4 25.6,23.2 12.4,31.9 11.4,41.9 6.4,44.9 	"/>
	<polygon display="inline" fill="#7C3A04" points="7.4,44.9 42.7,61.7 43,108.5 7.4,90.9 	"/>
	<polygon display="inline" fill="#D85700" points="42.7,61.7 72.4,41.9 72.4,88.1 43,108.5 	"/>
	<polygon display="inline" fill="#E27305" points="72.4,41.9 37.4,23.7 7.4,44.9 42.7,61.7 	"/>
	<polygon display="inline" fill="#333333" points="59.4,30.4 25.9,23.2 12.4,31.9 45.4,39.9 	"/>
	<polygon display="inline" fill="#212121" points="59.4,44.4 59.4,30.4 45.4,39.9 45.4,53.6 	"/>
	<polygon display="inline" fill="#070707" points="12.4,41.6 12.4,31.9 45.4,39.9 45.4,53.6 16.1,38.9 	"/>

		<ellipse transform="matrix(0.8817 0.4717 -0.4717 0.8817 36.2049 -23.3003)" display="inline" cx="64.6" cy="60.6" rx="5" ry="8.5"/>
	<polygon display="inline" points="46.5,66.1 45,71.8 53.5,71.1 55.2,65.8 	"/>
	<polygon display="inline" points="67.4,73.3 48.5,90.5 48.3,94.8 67.4,87.5 	"/>
	<polygon display="inline" fill="#E27305" points="19.8,62.9 16.3,65.5 24.4,69.4 27.9,66.9 	"/>
	<polygon display="inline" fill="#9E4504" points="24.4,95.6 24.4,69.4 15.9,65.5 16.4,91.5 	"/>
	<polygon display="inline" fill="#D85700" points="28.1,67.3 28,92.5 24.4,95.6 24.4,69.4 	"/>
</g>
</svg>
