<?xml version="1.0" encoding="utf-8"?>
<!-- Generator: Adobe Illustrator 19.1.0, SVG Export Plug-In . SVG Version: 6.00 Build 0)  -->
<!DOCTYPE svg PUBLIC "-//W3C//DTD SVG 1.1//EN" "http://www.w3.org/Graphics/SVG/1.1/DTD/svg11.dtd">
<svg version="1.1" xmlns="http://www.w3.org/2000/svg" xmlns:xlink="http://www.w3.org/1999/xlink" x="0px" y="0px" width="80px"
	 height="120px" viewBox="0 0 80 120" enable-background="new 0 0 80 120" xml:space="preserve">
<g>
	<polygon display="inline" opacity="0.44" points="67.2,97.4 34.9,77.9 2.4,97.9 34.4,116.1 	"/>
	<polygon display="inline" fill="none" stroke="#000000" stroke-width="4" stroke-miterlimit="10" points="7.1,91.1 39.6,108.9
		72.1,90.6 72.7,43.1 65.6,38.2 66.2,31.9 51.4,23.2 43.1,26.1 39.7,23.7 33.4,28.4 20.4,31.9 20.2,37.1 7.4,44.9 	"/>
	<polygon display="inline" fill="#7C3A04" points="7.4,44.9 39.4,63.1 39.6,108.7 7.4,90.9 	"/>
	<polygon display="inline" fill="#D85700" points="39.2,63.1 72.2,43.9 72.1,90.6 39.6,108.7 	"/>
	<polygon display="inline" fill="#E27305" points="72.2,44.4 39.9,24.9 7.4,44.9 39.4,63.1 	"/>
	<polygon display="inline" fill="#333333" points="51.6,23.9 20.6,32.2 35.7,40.7 66.4,32.6 	"/>
	<polygon display="inline" fill="#070707" points="36.4,55.2 35.7,40.7 20.3,32.2 20.1,45.1 	"/>
	<polygon display="inline" fill="#212121" points="35.9,55.1 35.8,40.7 66.4,32.6 66.4,40.6 63.3,39.6 	"/>

		<ellipse transform="matrix(0.8706 -0.4919 0.4919 0.8706 -31.2458 24.2963)" display="inline" cx="30.6" cy="71.6" rx="5" ry="8.5"/>
	<polygon display="inline" points="10.4,53.7 8.9,56.7 18.1,67.1 19.9,63.4 	"/>
	<polygon display="inline" points="33.6,87.9 12.7,80.4 12.9,85.1 33.4,102.2 	"/>
	<polygon display="inline" fill="#E27305" points="60.7,63.2 53.9,67.6 57.6,69.6 64.9,65.4 	"/>
	<polygon display="inline" fill="#9E4504" points="57.2,95.7 57.6,70.1 53.4,67.6 53.6,93.2 	"/>
	<polygon display="inline" fill="#F46403" points="64.6,65.6 64.9,91.2 57.7,95.1 57.6,69.6 	"/>
</g>
</svg>
