<?xml version="1.0" encoding="utf-8"?>
<!-- Generator: Adobe Illustrator 19.1.0, SVG Export Plug-In . SVG Version: 6.00 Build 0)  -->
<!DOCTYPE svg PUBLIC "-//W3C//DTD SVG 1.1//EN" "http://www.w3.org/Graphics/SVG/1.1/DTD/svg11.dtd">
<svg version="1.1" xmlns="http://www.w3.org/2000/svg" xmlns:xlink="http://www.w3.org/1999/xlink" x="0px" y="0px" width="360px"
	 height="473.4px" viewBox="-59 84.6 360 473.4" enable-background="new -59 84.6 360 473.4" xml:space="preserve">
<g>
	<g id="bg">
		<g>
			<path d="M141,176.9l20,11.5v92.4l60,34.6v92.3l-100,57.8L1,396.8V304l20-11.6L41,304v-69.3L141,176.9 M141,172.3l-2,1.2L39,231.2
				l-2,1.2v2.3V297l-14-8.1l-2-1.2l-2,1.2l-20,11.6l-2,1.2v2.3v92.8v2.3l2,1.2l120,68.8l2,1.1l2-1.2l100-57.8l2-1.2v-2.3v-92.3v-2.3
				l-2-1.2l-58-33.5v-90.1v-2.3l-2-1.2l-20-11.5L141,172.3L141,172.3z"/>
		</g>
	</g>
	<g id="fill">
		<polygon fill="#666666" stroke="#000000" stroke-width="2" stroke-miterlimit="10" points="121,465.6 1,396.8 1,304 121,373.2
			"/>
		<polygon fill="#666666" stroke="#000000" stroke-width="2" stroke-miterlimit="10" points="161,304 101,338.6 41,304 41,234.7
			"/>
		<polygon fill="#AAAAAA" stroke="#000000" stroke-width="2" stroke-miterlimit="10" points="221,315.5 121,373.2 121,465.6
			221,407.8 		"/>
		<polygon fill="#AAAAAA" stroke="#000000" stroke-width="2" stroke-miterlimit="10" points="161,280.9 161,188.5 81,234.7 		"/>
		<polygon fill="#FFFFFF" stroke="#000000" stroke-width="2" stroke-miterlimit="10" points="141,176.9 161,188.5 81,234.7
			221,315.5 121,373.2 1,304 21,292.4 101,338.6 161,304 41,234.7 		"/>
	</g>
	<g id="dest">
		<polygon fill="#AD0000" stroke="#000000" stroke-miterlimit="10" points="141,176.9 161,188.5 141,200 121,188.5 		"/>
		<polygon fill="#AD0000" stroke="#000000" stroke-miterlimit="10" points="20.5,291.9 40.5,303.5 20.5,315 0.5,303.5 		"/>
	</g>
</g>
</svg>
