<?xml version="1.0" encoding="utf-8"?>
<!-- Generator: Adobe Illustrator 19.1.0, SVG Export Plug-In . SVG Version: 6.00 Build 0)  -->
<!DOCTYPE svg PUBLIC "-//W3C//DTD SVG 1.1//EN" "http://www.w3.org/Graphics/SVG/1.1/DTD/svg11.dtd">
<svg version="1.1" xmlns="http://www.w3.org/2000/svg" xmlns:xlink="http://www.w3.org/1999/xlink" x="0px" y="0px" width="360px"
	 height="473.4px" viewBox="-59 84.6 360 473.4" enable-background="new -59 84.6 360 473.4" xml:space="preserve">
<g>
	<g id="bg_copy_2">
		<g>
			<path d="M141,223.1l120,69.3V304l-104.9,89.6l4.5,2.8l0.3,17.2l-60,63.6l-60-61.1v-19.7l5.2-2.9L-19,330.1v-14.6L141,223.1
				 M141,218.5l-2,1.2L-21,312l-2,1.2v2.3v14.6v1.7l1.2,1.2l61.3,59.6l-0.5,0.3L37,394v2.4v19.7v1.6l1.1,1.2l60,61.1l2.9,3l2.9-3
				l60-63.6l1.1-1.2l0-1.6l-0.3-17.2l0-2.2l-1.7-1.1l100.7-86l1.4-1.2V304v-11.5v-2.3l-2-1.2l-120-69.3L141,218.5L141,218.5z"/>
		</g>
		<path d="M100.9,343.1l-52.7-30.4L80.1,293l20.1,3.3l16.6-9.2l-0.2-4.8l-6.7-7.6l31-18.7l56.9,31.1L100.9,343.1z M63.8,312.5
			l37.1,21.4l80.5-46.5L141,265.3l-18.8,11.4l2.2,2.5l0.5,12.6l-23.4,12.9l-19.9-3.3L63.8,312.5z"/>
	</g>
	<g id="fill_copy_2">
		<polygon fill="#666666" stroke="#000000" stroke-width="2" stroke-miterlimit="10" points="81,425.6 -19,330.1 -19,315.5
			81,373.3 		"/>
		<polygon fill="#666666" stroke="#000000" stroke-width="2" stroke-miterlimit="10" points="241,315.5 141,260.8 141,246.2
			241,304 		"/>
		<polygon fill="#666666" stroke="#000000" stroke-width="2" stroke-miterlimit="10" points="101,477.2 41,416.1 41,396.3
			100.6,431.2 		"/>
		<polygon fill="#AAAAAA" stroke="#000000" stroke-width="2" stroke-miterlimit="10" points="121,423.1 261,304 261,292.4
			121,373.2 		"/>
		<polygon fill="#AAAAAA" stroke="#000000" stroke-width="2" stroke-miterlimit="10" points="41,321.3 141,260.8 141,246.2 41,304
					"/>
		<polygon fill="#666666" stroke="#000000" stroke-width="2" stroke-miterlimit="10" points="101,300.6 81,297.3 81,280.9
			101,292.4 		"/>
		<polygon fill="#AAAAAA" stroke="#000000" stroke-width="2" stroke-miterlimit="10" points="101,300.6 121,289.5 121,280.9
			101,292.4 		"/>
		<polygon fill="#AAAAAA" stroke="#000000" stroke-width="2" stroke-miterlimit="10" points="160.7,396.3 100.6,431.2 101,477.2
			161,413.6 		"/>
	</g>
	<path fill="#FFFFFF" stroke="#000000" stroke-width="2" stroke-miterlimit="10" d="M261,292.4l-120-69.3l-160,92.4l100,58.6
		l-40,22.3l59.6,34.9l60.1-34.9L121,373.2L261,292.4z M101,338.6L41,304l40-23.1l20,11.5l20-11.5l-20-11.5l40-23.1l60,34.6
		L101,338.6z"/>
	<g id="dest_copy_2">
		<polygon fill="#AD0000" stroke="#000000" stroke-miterlimit="10" points="100.6,269.3 120.6,280.9 100.6,292.4 80.6,280.9 		"/>
		<polygon fill="#AD0000" stroke="#000000" stroke-miterlimit="10" points="101,407.9 121,419.4 101,431 81,419.4 		"/>
	</g>
</g>
</svg>
